<svg version="1.1" xmlns="http://www.w3.org/2000/svg" xmlns:xlink="http://www.w3.org/1999/xlink" width="455.74419" height="339.28531" viewBox="0,0,455.74419,339.28531"><g transform="translate(-8.36576,-15.2)"><g data-paper-data="{&quot;isPaintingLayer&quot;:true}" fill-rule="nonzero" stroke="none" stroke-linecap="butt" stroke-linejoin="miter" stroke-miterlimit="10" stroke-dasharray="" stroke-dashoffset="0" style="mix-blend-mode: normal"><path d="M199.73019,52.54687c1.12822,0 2.09703,0.68249 2.5161,1.65714c0.13791,-0.0146 0.22146,-0.0146 0.22146,-0.0146c2.86473,0 6.14706,0.44348 8.97324,0.02051c3.30935,-0.49527 6.27228,-1.11554 9.64221,-1.11554l1.04648,0.37745c0.40758,-1.58731 0.85316,-3.16679 1.20093,-4.76749c0.21198,-0.97569 0.40046,-1.95989 0.49948,-2.95343c0.00749,-0.07515 0.00725,-0.16155 0.0022,-0.25565c-0.71858,0.16779 -1.46446,0.26973 -2.17816,0.42125c-1.38647,0.29436 -2.79547,0.50299 -4.20946,0.60082c-2.88008,0.19926 -7.00314,0.45837 -9.9403,-0.02846c-1.75979,-0.29169 -3.6571,-1.18177 -5.3548,-1.74767c0,0 -2.59708,-0.86569 -1.73139,-3.46278c0.86569,-2.59708 3.46278,-1.73139 3.46278,-1.73139c1.41669,0.47223 3.0307,1.29014 4.50043,1.53741c1.47568,0.24826 2.99269,-0.03673 4.48911,-0.03535c3.405,0.00314 4.42647,0.20915 7.64176,-0.48732c1.18385,-0.25643 6.37117,-2.23264 7.64675,-1.186c1.05631,0.86672 1.29208,5.18586 1.12756,6.82673c-0.449,4.47805 -2.33655,8.66901 -2.73757,13.14031c-0.21793,2.42992 0.00933,4.99654 0.00933,7.43939c0,1.46003 0,2.92007 0,4.3801v1.64254c0,0 0,2.73757 -2.73757,2.73757c-0.51215,0 -0.92848,-0.09581 -1.26692,-0.25159l-1.47064,0.7991c-1.17905,-0.01849 -2.32699,0.38922 -3.49811,0.527c-0.59441,0.06993 -1.22802,-0.27406 -1.79379,-0.07882c-1.00596,0.34715 -1.71299,1.35496 -2.73757,1.64254c-1.11355,0.31255 -2.31195,0.07686 -3.46831,0.09933c-2.85445,0.05548 -5.66655,0.15098 -8.44524,-0.661c-1.52541,-0.44575 -2.95773,-1.16806 -4.46574,-1.66953c0,0 -2.59708,-0.86569 -1.73139,-3.46278c0.86569,-2.59708 3.46278,-1.73139 3.46278,-1.73139c3.37197,1.12643 5.97491,2.04957 9.53705,2.04957c1.2169,0 2.49213,0.47574 3.64936,0.09933c1.01199,-0.32917 1.725,-1.31515 2.73757,-1.64254c0.82067,-0.26535 1.73113,0.03332 2.58632,-0.07882c0.99318,-0.13024 1.97887,-0.35694 2.97208,-0.48106c0.23226,-0.18394 0.65861,-0.47185 1.19499,-0.61153c0,-1.23628 0,-2.51465 0,-3.30802c0,-2.59074 -0.22747,-5.31496 0.00933,-7.89098c0.00008,-0.0009 0.00016,-0.00179 0.00025,-0.00269c-0.089,-0.03561 -0.13883,-0.06053 -0.13883,-0.06053l0.12925,-0.2585c-3.16044,0 -5.86638,0.64644 -8.97324,1.07452c-3.08251,0.42472 -6.52799,0.02051 -9.64221,0.02051c0,0 -1.95195,0 -2.55937,-1.64825c-0.05891,0.00379 -0.11833,0.00571 -0.1782,0.00571c-0.64216,0 -1.23267,-0.2211 -1.69957,-0.59133c-0.15913,0.02879 -0.32305,0.04382 -0.49048,0.04382c-1.33573,0 -2.44802,-0.95664 -2.68912,-2.22215c-0.03045,0.02036 -0.06057,0.0413 -0.0903,0.06287c-0.65704,0.4765 -1.04783,1.27718 -1.73622,1.70714c-0.90912,0.56783 -2.01627,0.74339 -2.9701,1.2324c-0.24575,0.12599 -0.48741,0.25883 -0.72575,0.39728c-0.00045,4.5351 -0.00121,9.07021 -0.00121,13.60531c0,1.46294 0.0082,2.92386 -0.03241,4.38615l0.41923,1.25769c0.10401,0.28931 0.16069,0.60119 0.16069,0.92632c0,1.51192 -1.22565,2.73757 -2.73757,2.73757c-1.23146,0 -2.27302,-0.81312 -2.61705,-1.93176l-0.41777,-1.25332c-1.77617,-1.90607 -3.49563,-3.88991 -4.89951,-6.01492l-0.6854,-1.9796c0,0 -0.86569,-2.59708 1.73139,-3.46278c2.59708,-0.86569 3.46278,1.73139 3.46278,1.73139l0.14037,0.44736c-0.00015,-2.22936 -0.00043,-4.45873 -0.0007,-6.68809c-0.08882,0.05615 -0.17803,0.11166 -0.26767,0.16645c-2.79657,1.70929 -5.98014,2.99598 -8.90999,4.46091c0,0 -2.44855,1.22428 -3.67283,-1.22428c-1.22428,-2.44855 1.22428,-3.67283 1.22428,-3.67283c2.82607,-1.41303 5.91652,-2.64517 8.61043,-4.2993c1.03898,-0.63796 2.0246,-1.36384 3.01511,-2.08043c-0.00016,-2.64188 -0.00014,-5.28376 0.00029,-7.92564c-0.51924,-0.08328 -1.03767,-0.17237 -1.55602,-0.25828c-1.94632,-0.32258 -3.93284,-0.32282 -5.89494,-0.52873c-0.18806,-0.01974 -4.34887,-1.06608 -4.70958,-1.15625c0,0 -2.65583,-0.66396 -1.99187,-3.31979c0.66396,-2.65583 3.31979,-1.99187 3.31979,-1.99187c3.44661,0.86165 6.70981,1.01492 10.20099,1.6001c0.20957,0.03513 0.42062,0.0632 0.63272,0.08609c-0.00671,-6.50608 -0.18866,-13.30292 -3.92022,-18.86485c0,0 -1.51853,-2.27779 0.75926,-3.79632c2.27779,-1.51853 3.79632,0.75926 3.79632,0.75926c4.4676,6.73735 4.828,14.7071 4.83959,22.55156c0.44778,0.20291 0.58993,0.87749 1.04791,1.07587c0.32049,0.13883 0.68825,-0.22638 1.03343,-0.17304c0.23846,0.03686 0.47136,0.09753 0.70148,0.17011c0.74506,-0.3475 1.86544,-0.52402 2.98581,0.59635c1.93575,1.93575 0,3.8715 0,3.8715l-3.34896,1.20884c-0.76435,-0.27822 -1.60724,-0.26665 -2.41803,-0.37174c0.00012,1.15915 0.00018,2.31829 0.00018,3.47744c0.23739,-0.08682 0.46721,-0.18898 0.68151,-0.32303c0.62486,-0.39083 0.94644,-1.15332 1.54886,-1.57794c0.78665,-0.55447 1.71097,-0.88183 2.56646,-1.32275l-0.16396,-0.03471c0,0 1.93575,-1.93575 3.8715,0c0.97478,0.97478 0.96783,1.94956 0.72069,2.67716c0.24858,0.09917 0.47921,0.23372 0.68567,0.39743c0.15913,-0.02879 0.32305,-0.04382 0.49048,-0.04382z" fill="#0057e3" stroke-width="0.5"/><path d="M273.90689,44.4292c0.40838,0 0.79588,0.08942 1.14398,0.24975c0.00526,-0.37414 -0.00368,-0.74743 -0.03962,-1.11898c-0.13107,-1.35486 -0.44695,-2.6851 -0.67982,-4.02653c-3.73246,-0.1314 -7.49985,-0.45704 -11.149,-0.04118c-3.59382,0.40955 -7.1402,1.64323 -10.72209,2.06056c-0.05996,1.03625 -0.10019,2.10511 0.05819,2.98539c0.22247,1.23646 0.56153,2.46746 0.58286,3.72359v1.64254c0,0 0,2.73757 -2.73757,2.73757c-2.73757,0 -2.73757,-2.73757 -2.73757,-2.73757v-1.64254c0.02829,-0.96368 -0.36307,-1.89408 -0.51216,-2.84657c-0.28696,-1.83321 -0.03535,-4.063 -0.03535,-5.91364c0,0 0,-1.44495 1.04978,-2.2353c0.79035,-1.04978 2.2353,-1.04978 2.2353,-1.04978c1.94056,0.03043 3.56784,-0.65763 5.4652,-1.03767c0.21073,-0.04221 6.75938,-1.12757 6.90181,-1.14306c3.59332,-0.39073 7.27858,-0.09253 10.93727,0.03955c-0.20746,-0.96396 -0.50372,-1.82641 -0.94398,-2.36294c0,0 -0.64667,-0.97 -0.46301,-2.06601c-1.09395,-0.00001 -2.18789,-0.00002 -3.28184,-0.00003c-4.33801,-0.00006 -8.74449,0.11216 -12.91098,-1.23551c0,0 -2.59708,-0.86569 -1.73139,-3.46278c0.86569,-2.59708 3.46278,-1.73139 3.46278,-1.73139c3.5273,1.22652 7.47911,0.9546 11.17959,0.95454c6.93517,-0.0001 13.87033,0 20.8055,0h0.54751c0,0 2.73757,0 2.73757,2.73757c0,2.73757 -2.73757,2.73757 -2.73757,2.73757h-0.54751c-3.94766,0 -7.89531,0.00003 -11.84297,0.00004c0.31028,0.44143 0.60432,0.89042 0.77524,1.39671c0.23592,0.69881 0.0111,1.47889 0.10814,2.21005c0.03548,0.26735 0.07391,0.53425 0.11459,0.80081c0.03593,-0.00227 0.07185,-0.0046 0.10776,-0.00699c1.50165,-0.0999 2.88966,-0.88645 4.3801,-1.09503c5.25578,-0.7355 10.35151,1.62301 15.55585,1.65738c1.65124,0.52069 3.24214,1.24646 4.92762,1.64254c1.39798,0.32852 3.63361,-0.03535 5.03662,-0.03535h1.64254c1.51192,0 2.73757,1.22565 2.73757,2.73757c0,0.9653 -0.49962,1.81391 -1.25437,2.30134l-1.60721,1.07147l-0.03155,-0.04733c-0.07718,0.07098 -0.15673,0.13974 -0.23891,0.20605c-1.21348,0.97926 -2.95825,1.00239 -4.3801,1.64254c-0.52468,0.23622 -0.9302,0.68095 -1.42669,0.97178c-0.68682,0.40233 -1.58699,0.51062 -2.1173,1.10422c-0.46179,0.51691 -0.42496,1.31954 -0.63744,1.97932l-2.41252,1.97936c0,0 -1.24139,0.62069 -2.3983,0.09427c-0.31415,0.12564 -0.65702,0.19474 -1.01603,0.19474c-0.74626,0 -1.42278,-0.2986 -1.9166,-0.78285c-0.15449,0.14512 -1.19641,1.06655 -2.4676,0.78986c0.13907,1.48633 1.44823,2.70019 2.28189,3.94959l-0.28063,1.26244c0.54205,0.09733 1.08322,0.19958 1.6224,0.2766c2.05541,0.29362 3.30726,-0.82102 5.17142,1.66388c0.72251,0.9631 0.5234,2.37403 0.49623,3.57771c-0.04868,2.15603 -1.39911,4.8127 -2.21894,6.75337c0.04037,3.61231 -1.61836,6.79766 -1.59314,10.43257v0.54751c0,0 0,2.73757 -2.73757,2.73757c-0.45484,0 -0.8341,-0.07557 -1.15036,-0.2016c-0.55873,0.2016 -1.03969,0.2016 -1.03969,0.2016h-0.54751c-1.91616,0 -4.25457,-0.37308 -6.13165,-0.03535c-1.23646,0.22247 -2.46731,0.57459 -3.72359,0.58286c-1.44904,0.00955 -4.53154,-0.41306 -6.13165,-0.03535c-1.12338,0.26518 -2.14809,0.89611 -3.28508,1.09503c-1.92648,0.33704 -4.45249,0.03535 -6.46115,0.03535c0,0 -1.95061,0 -2.55874,-1.64655c-0.05827,0.00265 -0.11787,0.00401 -0.17882,0.00401c-2.73757,0 -2.73757,-2.73757 -2.73757,-2.73757v-1.09503c0,-2.37059 0.24107,-4.873 0.03535,-7.22667c-0.10587,-1.21124 -1.08455,-2.18152 -1.50784,-3.32131c-0.29665,-0.79877 -0.42388,-1.65059 -0.63582,-2.47588c0,0 -0.66396,-2.65583 1.99187,-3.31979c0.31113,-0.07778 0.59493,-0.11 0.85352,-0.10627c0.62,-1.618 2.548,-1.618 2.548,-1.618c1.38582,0 2.33607,-0.10664 3.29923,-0.28003c0.0103,-0.10134 0.02612,-0.20104 0.04716,-0.29881c-1.58281,-0.2132 -2.05283,-1.46424 -2.19241,-2.18845c-1.77394,-1.13392 -3.12353,-2.44843 -4.73227,-4.05717c0,0 -1.93575,-1.93575 0,-3.8715c1.93575,-1.93575 3.8715,0 3.8715,0c1.56965,1.56965 2.73753,2.89839 4.76366,3.8673l1.51329,3.54358c0,0 0,0.24501 -0.0733,0.58844c0.87198,0.15228 1.60213,0.71718 1.98183,1.48609c1.15349,-0.09478 2.31879,-0.10806 3.44855,-0.34985c0.03958,-0.00847 0.07893,-0.01772 0.11805,-0.02768v-0.60197c0,-2.3142 0.37818,-4.95478 0.03535,-7.22667c-0.04326,-0.28669 -0.15871,-0.55597 -0.27422,-0.82527c-0.41044,0.2456 -0.89057,0.38676 -1.40367,0.38676c-0.2967,0 -0.58238,-0.0472 -0.84993,-0.1345c-0.80374,0.68202 -1.88763,0.68202 -1.88763,0.68202l-3.1446,-1.87187c-0.40009,-1.27509 -0.23745,-1.90531 -1.55369,-2.1012c0,0 -2.59708,-0.86569 -1.73139,-3.46278c0.86569,-2.59708 3.46278,-1.73139 3.46278,-1.73139c0.81284,0.32301 1.76469,0.41137 2.43853,0.96903c0.99961,0.82728 1.49702,1.64534 1.86939,2.55808c0.40887,-0.24298 0.88641,-0.38252 1.39655,-0.38252zM295.80742,44.97672c0.39158,0 0.76396,0.08222 1.10082,0.23033c0.3081,-0.90823 0.57873,-1.84024 1.19511,-2.5528c0.67515,-0.7805 1.64528,-1.22224 2.56749,-1.71932c-0.90612,-0.31349 -1.85025,-0.66125 -2.56436,-0.92118c-4.67543,0.0342 -9.31929,-2.3172 -14.00986,-1.6277c-1.5401,0.22639 -2.6473,0.92097 -4.21469,1.08037c0.22505,1.21009 0.46925,2.41778 0.58579,3.64197c0.14895,1.56458 -0.30433,3.16808 -0.02602,4.7149c0.1022,0.56801 0.46948,1.07071 0.54751,1.64254c0.30624,2.24408 0.10981,4.69455 0.05061,7.01623c1.15505,-0.21559 2.31758,-0.3924 3.48285,-0.53457c1.20047,-0.14646 2.43682,0.21454 3.62956,0.03134c0.00163,-0.00681 0.00328,-0.01361 0.00496,-0.02038c-0.85018,-1.28865 -1.78653,-2.77842 -2.10567,-3.68082c-0.264,-0.74648 -0.06622,-1.58219 -0.09933,-2.37329c0,0 0,-2.73757 2.73757,-2.73757c0.20102,0 0.38727,0.01476 0.55985,0.04211c0.04071,-0.16745 0.0962,-0.32461 0.15902,-0.46901c-0.31173,-0.16879 -0.69258,-0.17115 -1.03706,-0.2611c0,0 -2.59708,-0.86569 -1.73139,-3.46278c0.86569,-2.59708 3.46278,-1.73139 3.46278,-1.73139c2.64354,0.97327 3.52053,1.91194 4.77384,3.85435c0.29052,-0.105 0.60388,-0.16224 0.93062,-0.16224zM271.27833,77.86285c1.13402,-0.2152 2.15561,-0.8571 3.28508,-1.09503c0.32415,-0.06828 0.65324,-0.11258 0.98602,-0.13864c0,-1.14825 0,-2.31827 0,-3.49713c-2.94922,0.28442 -5.81038,0.76429 -8.77084,1.35721c0,0 -0.44023,0.08805 -0.99979,0.01455c-0.03543,1.12541 -0.0846,2.24575 -0.0846,3.32369c1.68817,0 3.95817,0.3439 5.58413,0.03535zM282.7761,76.76783c0.56801,-0.1022 1.07235,-0.45826 1.64254,-0.54751c2.21617,-0.3469 4.76259,-0.03535 7.00867,-0.03535h0.15889c0.21873,-1.65211 0.62377,-3.24818 0.9627,-4.85791c-0.7942,1.02532 -2.21662,1.02532 -2.21662,1.02532h-1.64254c-1.17905,-0.01849 -2.32972,0.36774 -3.49811,0.527c-1.35973,0.18535 -2.76908,0.09474 -4.16708,0.03838c0,1.32574 0,2.65147 0,3.97721c0.59502,0.00734 1.18111,-0.02451 1.75154,-0.12714zM281.02456,63.04465c0,1.47814 0,2.95627 0,4.43441c1.18202,0.06534 2.37034,0.13611 3.49811,-0.03379c1.38623,-0.20884 2.76528,-0.55348 4.16708,-0.56802h1.64254c0,0 2.18729,0 2.65159,1.95514c0.079,-0.6331 0.12895,-1.27354 0.13537,-1.92532c0.44789,-1.16767 1.28858,-3.22084 1.70232,-4.6278c0.07681,-0.26119 0.11047,-0.54026 0.15423,-0.81447c-0.99824,-0.07835 -2.22412,-0.5428 -2.78794,-0.6307c-1.02285,-0.15946 -2.03684,0.37258 -3.0596,0.53268c-1.29643,0.20293 -2.63516,-0.15282 -3.93662,0.01484c-1.45238,0.1871 -2.90298,0.41421 -4.33584,0.71895c0.16876,0.51689 0.16876,0.9441 0.16876,0.9441zM265.70483,69.12046c3.31149,-0.66132 6.52759,-1.1902 9.8446,-1.48612c0,-1.33042 0,-2.64644 0,-3.92929c-1.29464,0.1515 -2.61174,0.16442 -3.89588,0.39146c-3.09491,0.54719 -4.8183,1.07452 -7.62756,1.13285c0.55215,1.30337 1.24093,2.56557 1.53531,3.92762c0.09017,-0.02586 0.14353,-0.03653 0.14353,-0.03653z" fill="#e30000" stroke-width="0.5"/><g><path d="M382,289.11311c0,-17.61065 14.27625,-31.88689 31.88689,-31.88689c17.61065,0 31.88689,14.27625 31.88689,31.88689c0,17.61065 -14.27625,31.88689 -31.88689,31.88689c-17.61065,0 -31.88689,-14.27625 -31.88689,-31.88689z" fill="#000000" stroke-width="0"/><path d="M409.39069,281.90185c-1.82967,0.60989 -2.43956,-1.21978 -2.43956,-1.21978l-0.25715,-0.77146c-0.26338,-0.80944 -0.66309,-1.5394 -1.02069,-2.31087c-0.26432,-0.23462 -0.68789,-0.89733 -0.92856,-0.99231c-0.65828,-0.25977 -1.63702,-0.38538 -2.34096,-0.28887c-0.48229,0.06612 -0.87398,0.4296 -1.31892,0.6271c-1.33872,0.59426 -2.57488,1.34963 -3.89057,1.93844c-0.45362,0.20301 -1.03505,1.77116 -1.24942,2.05862c-0.451,0.6048 -1.0652,1.10755 -1.38248,1.79204c0,0 -0.86251,1.72503 -2.58755,0.86251c-1.72503,-0.86251 -0.86251,-2.58755 -0.86251,-2.58755c0.22491,-0.43127 0.38708,-0.90159 0.67474,-1.29379c0.28677,-0.391 0.73649,-0.64159 1.02861,-1.02861c0.20371,-0.26989 0.25697,-0.62944 0.4383,-0.91486c0.41048,-0.64611 1.22606,-1.72042 1.91242,-2.16957c0.27917,-0.18269 0.63947,-0.20022 0.93805,-0.34908c1.1575,-0.5771 2.20076,-1.29323 3.40025,-1.82692c0.95221,-0.42367 1.22327,-0.72845 2.28121,-0.91581c1.46553,-0.25955 3.53964,0.03771 4.85931,0.73974c0.7356,0.39132 1.58042,1.48827 2.15727,2.09352c0.57745,1.10725 1.1498,2.16354 1.55084,3.34648l0.25715,0.77146c0,0 0.60989,1.82967 -1.21978,2.43956z" fill="#b9b9b9" stroke-width="0.5"/><path d="M434.25142,281.17233c0.22002,0.28034 0.37319,0.67069 0.37319,1.21422c0,1.92864 -1.92864,1.92864 -1.92864,1.92864l-2.1858,-1.92864c0.05466,-1.01516 -0.52819,-2.56889 -1.10577,-3.406c-0.9464,-0.91391 -2.05204,-1.48142 -3.21314,-2.06173c-0.34891,-0.17438 -0.61524,-0.57531 -1.0045,-0.60025c-0.33849,-0.02169 -0.6838,-0.02975 -1.01023,-0.12191c-0.04722,-0.01333 0.1362,0.05389 0.11139,0.09623c-0.09057,0.15454 -0.27517,0.23301 -0.38656,0.37329c-0.3561,0.44842 -0.61295,0.96808 -0.94568,1.43411c-0.72825,1.02 -1.63078,1.91472 -2.36863,2.90166c-0.63106,0.84409 -1.15786,1.76485 -1.81422,2.58943c0,0 -1.20481,1.50602 -2.71083,0.3012c-1.50602,-1.20481 -0.3012,-2.71083 -0.3012,-2.71083c0.6512,-0.80924 1.16161,-1.72345 1.78592,-2.55362c0.70924,-0.9431 1.5635,-1.78091 2.26011,-2.7557c0.74664,-1.0448 1.59081,-2.75573 2.89359,-3.23943c1.2188,-0.45252 3.24777,-0.22179 4.41409,0.30646c0.28153,0.12751 0.49505,0.37605 0.77146,0.5143c1.68742,0.84403 3.16292,1.71513 4.50143,3.08132c0.88571,1.3448 1.59394,2.99333 1.86402,4.63726z" fill="#b9b9b9" stroke-width="0.5"/><path d="M396.29058,292.86717c0.01456,-0.1689 0.05191,-0.35107 0.11731,-0.54726c0.60989,-1.82967 2.43956,-1.21978 2.43956,-1.21978c0.39184,0.14874 0.81213,0.23738 1.17552,0.44622c0.2491,0.14316 0.38591,0.43568 0.62805,0.59031c0.82054,0.52398 2.48979,1.01666 3.24335,1.33964c0.92545,0.39665 1.80134,0.9444 2.77982,1.18186c2.95025,0.71596 5.87135,0.30427 8.87998,0.45942c0.88249,0.04551 1.75481,0.24688 2.6384,0.25792c0.95745,0.01196 1.87081,-0.53761 2.7078,-0.88454c0.28775,-0.11927 0.60122,-0.24221 0.80108,-0.48112c1.36026,-0.90044 2.91603,-1.51578 4.48824,-1.9508c0.24785,-0.06858 0.60242,0.08223 0.81074,-0.01847l0.4745,-0.4745c0.34901,-0.34901 0.83118,-0.56489 1.36376,-0.56489c1.06516,0 1.92864,0.86348 1.92864,1.92864c0,0.53258 -0.21587,1.01474 -0.56489,1.36376l-0.68845,0.68845c-0.44288,0.57625 -0.84598,1.16045 -1.32158,2.00166c-1.2662,2.2396 -2.30148,4.68004 -3.70364,6.84562c-0.54086,0.83534 -1.55475,1.59291 -2.25806,2.29328c-2.76756,2.756 -6.12138,4.21653 -10.00462,2.75946c-0.74986,-0.28136 -1.3988,-0.78048 -2.09897,-1.16935c-1.43698,-0.7981 -2.90157,-1.57696 -4.37159,-2.31437c-0.48763,-0.3371 -1.08264,-0.49043 -1.58882,-0.79896c-0.27931,-0.17024 -0.46685,-0.46009 -0.72309,-0.66341c-0.48422,-0.38419 -1.06638,-0.63492 -1.54291,-1.02861c-0.52033,-0.42987 -0.87998,-1.02414 -1.29737,-1.55452c-0.29987,-0.38105 -0.72992,-0.64664 -1.02861,-1.02861c-0.12826,-0.16402 -0.13662,-0.41823 -0.29918,-0.54833c-0.29929,-0.23953 -0.74198,-0.25976 -1.02861,-0.5143c-0.51925,-0.46113 -0.82724,-1.2073 -1.24373,-1.76604c-0.25554,-0.34282 -0.63865,-0.60494 -0.80464,-0.99898c-0.15616,-0.37071 -0.08127,-0.80039 -0.12191,-1.20058l-0.18308,-0.4705c0,0 -0.39255,-1.17764 0.397,-1.95828zM401.88456,296.93546c0.27563,0.26668 0.42937,0.64443 0.67317,0.94326c0.30653,0.37571 0.7233,0.6519 1.02861,1.02861c0.25334,0.31258 0.41755,0.76085 0.75985,1.017c0.49489,0.37034 1.06193,0.64037 1.54291,1.02861c0.1235,0.09969 0.16838,0.2853 0.30552,0.3652c0.48146,0.28052 1.02952,0.4407 1.497,0.74396c1.47151,0.73323 2.93509,1.5161 4.37159,2.31437c0.74897,0.41621 0.71725,0.59421 1.50117,0.88787c1.66413,0.62338 3.00921,0.38928 4.42636,-0.56309c0.8721,-0.58608 1.54569,-1.33941 2.28393,-2.07765c0.35582,-0.35582 0.8289,-0.61649 1.08492,-1.0497c0.66618,-1.12724 1.30856,-2.26859 1.93966,-3.41584c0.11193,-0.20347 0.23952,-0.47114 0.38137,-0.78028c-1.42035,1.06244 -3.59779,1.83313 -5.2823,1.84952c-1.00989,0.00983 -2.0102,-0.20747 -3.01895,-0.25639c-2.25936,-0.10957 -4.57979,0.19577 -6.83421,-0.01247c-1.48954,-0.13759 -3.24353,-0.59831 -4.61685,-1.16097c-0.68416,-0.28031 -1.36497,-0.56879 -2.04374,-0.86201z" fill="#b9b9b9" stroke-width="0.5"/><path d="M442.08203,242.27079c0,1.72178 -1.5371,1.90645 -1.86684,1.92626c-1.28759,0.428 -2.57042,0.86017 -3.86731,1.26324c-0.99186,-0.04154 -1.56414,0.57745 -2.57152,0.77146c-0.241,0.04641 -0.4995,-0.07066 -0.73627,-0.00604c-0.23723,0.06474 -2.61642,1.05115 -3.02373,1.19903c-0.16734,0.06076 -1.69527,0.49486 -2.1072,0.78224c-2.56563,1.78991 -4.93612,3.9676 -6.78221,6.53191c-1.47605,2.05031 -2.63881,4.3124 -4.08292,6.38532c-0.75461,1.08319 -2.50513,2.485 -2.79204,3.9866c0,0 -0.46777,1.87106 -2.33882,1.40329c-1.87106,-0.46777 -1.40329,-2.33882 -1.40329,-2.33882c0.12892,-0.46324 0.17301,-0.959 0.38677,-1.38972c0.72626,-1.46339 2.05939,-2.54042 2.99285,-3.88116c1.46394,-2.10268 2.64643,-4.39483 4.14595,-6.47229c1.54642,-2.14245 3.44696,-4.14283 5.51637,-5.77818c0.46824,-0.37002 1.01513,-0.63072 1.4926,-0.98875c0.22572,-0.16925 0.37286,-0.43356 0.60935,-0.5874c1.21437,-0.78994 1.6726,-0.77853 3.03585,-1.27498c1.41393,-0.51491 2.02843,-0.92712 3.66224,-1.37249c0.25942,-0.07072 0.53976,0.02677 0.80664,-0.00604c0.60372,-0.07424 1.08098,-0.57783 1.66589,-0.74477c0.29041,-0.08288 0.60376,-0.01779 0.90563,-0.02669c1.18122,-0.46561 2.35841,-0.80983 3.55633,-1.21169l0.86704,-0.09897c0,0 1.92864,0 1.92864,1.92864z" fill="#b9b9b9" stroke-width="0.5"/><path d="M357.54083,307.0336c5.42076,-11.84401 19.41661,-17.05108 31.26062,-11.63032c11.84401,5.42076 17.05108,19.41661 11.63032,31.26061c-5.42076,11.84401 -19.41661,17.05108 -31.26062,11.63033c-11.84401,-5.42076 -17.05108,-19.41661 -11.63032,-31.26062z" fill="#000000" stroke-width="0"/><path d="M378.18209,310.61485c-1.41827,-0.15301 -1.26526,-1.57129 -1.26526,-1.57129l0.06451,-0.598c0.07202,-0.62546 0.02789,-1.23942 0.02485,-1.86835c-0.10555,-0.23916 -0.18643,-0.81524 -0.31906,-0.95319c-0.36277,-0.37734 -0.98235,-0.76308 -1.48549,-0.91485c-0.34472,-0.10399 -0.72003,0.0199 -1.08007,0.01578c-1.08328,-0.01241 -2.14716,0.11511 -3.21327,0.10613c-0.36757,-0.0031 -1.2413,0.87259 -1.47396,0.99994c-0.48949,0.26793 -1.05732,0.417 -1.48139,0.77969c0,0 -1.11107,0.89467 -2.00574,-0.21639c-0.89467,-1.11107 0.2164,-2.00574 0.2164,-2.00574c0.28401,-0.22082 0.53785,-0.48722 0.85204,-0.66245c0.31322,-0.17469 0.69281,-0.2048 1.00841,-0.37517c0.22008,-0.11881 0.36657,-0.34423 0.57638,-0.48037c0.47495,-0.30819 1.35415,-0.77967 1.95401,-0.87047c0.24399,-0.03693 0.4917,0.06218 0.73833,0.05397c0.95611,-0.03183 1.87819,-0.19234 2.84918,-0.18206c0.77082,0.00816 1.04693,-0.11338 1.81612,0.08626c1.06553,0.27655 2.36898,1.1149 3.04042,1.99326c0.37427,0.48961 0.6048,1.4874 0.80646,2.07203c0.04754,0.92243 0.10733,1.80901 0.01293,2.72803l-0.06452,0.598c0,0 -0.15301,1.41827 -1.57128,1.26526z" fill="#b9b9b9" stroke-width="0.5"/><path d="M395.12668,317.77662c0.06168,0.25627 0.04454,0.56595 -0.12276,0.9315c-0.59366,1.29711 -1.89076,0.70345 -1.89076,0.70345l-0.8764,-1.96992c0.34924,-0.66592 0.4355,-1.89029 0.30472,-2.63107c-0.35519,-0.90596 -0.92409,-1.62797 -1.52636,-2.37565c-0.18098,-0.22468 -0.23669,-0.5763 -0.49081,-0.71289c-0.22098,-0.11878 -0.45073,-0.23049 -0.6419,-0.39295c-0.02765,-0.0235 0.07501,0.07817 0.0453,0.099c-0.10848,0.07606 -0.25679,0.07201 -0.37488,0.13207c-0.37752,0.19197 -0.71022,0.46241 -1.07745,0.67341c-0.80375,0.46183 -1.68615,0.78577 -2.48618,1.22241c-0.68424,0.37344 -1.32196,0.83054 -2.0172,1.18308c0,0 -1.27386,0.64201 -1.91588,-0.63185c-0.64202,-1.27387 0.63185,-1.91588 0.63185,-1.91588c0.68706,-0.34381 1.31173,-0.80155 1.98715,-1.16771c0.7673,-0.41597 1.59972,-0.71649 2.36827,-1.15765c0.82375,-0.47285 1.91814,-1.36369 2.94321,-1.28799c0.95899,0.07082 2.25255,0.85054 2.87436,1.56481c0.15009,0.17241 0.21719,0.40529 0.36053,0.58336c0.87506,1.08706 1.59928,2.12709 2.07897,3.45793c0.18174,1.17707 0.15062,2.50379 -0.17376,3.69254z" fill="#b9b9b9" stroke-width="0.5"/><path d="M365.99639,313.95719c0.06178,-0.10911 0.14297,-0.22013 0.24735,-0.33195c0.97337,-1.04281 2.01619,-0.06944 2.01619,-0.06944c0.21775,0.22065 0.47313,0.40963 0.65324,0.66194c0.12347,0.17296 0.12543,0.4118 0.24069,0.59033c0.39057,0.60497 1.36156,1.45014 1.76895,1.89931c0.50032,0.55163 0.92079,1.18964 1.50577,1.65052c1.7638,1.38964 3.85511,2.0119 5.8308,3.04234c0.57951,0.30224 1.1042,0.70619 1.69506,0.98559c0.64025,0.30276 1.42369,0.21429 2.0934,0.23859c0.23024,0.00836 0.4789,0.02216 0.68686,-0.077c1.19201,-0.18689 2.42774,-0.12185 3.61904,0.06952c0.1878,0.03017 0.37985,0.24074 0.55095,0.23713l0.46518,-0.17307c0.34216,-0.1273 0.73288,-0.12407 1.09107,0.03987c0.71637,0.32787 1.03132,1.17439 0.70345,1.89077c-0.16393,0.35819 -0.45753,0.61601 -0.79969,0.74331l-0.67493,0.2511c-0.47523,0.25123 -0.92617,0.52006 -1.50496,0.93942c-1.54096,1.11649 -2.98843,2.43913 -4.59804,3.46399c-0.62088,0.39532 -1.53596,0.59274 -2.22455,0.84728c-2.70964,1.00166 -5.41482,0.95159 -7.57798,-1.22366c-0.41771,-0.42005 -0.70052,-0.95548 -1.05172,-1.43253c-0.72078,-0.97908 -1.46604,-1.95372 -2.22772,-2.90216c-0.22419,-0.37681 -0.57716,-0.66309 -0.82263,-1.02639c-0.13545,-0.20047 -0.17236,-0.45314 -0.28211,-0.66875c-0.2074,-0.40743 -0.52176,-0.75526 -0.72107,-1.16671c-0.21763,-0.44927 -0.27659,-0.95965 -0.39404,-1.44484c-0.08439,-0.34858 -0.29186,-0.65957 -0.37517,-1.00841c-0.03577,-0.14979 0.03685,-0.32334 -0.03243,-0.46087c-0.12756,-0.25322 -0.41906,-0.40309 -0.53348,-0.66251c-0.20728,-0.46996 -0.18474,-1.0666 -0.29286,-1.57058c-0.06634,-0.30922 -0.24332,-0.60344 -0.23366,-0.91954c0.00909,-0.29738 0.19171,-0.56332 0.28757,-0.84497l0.02169,-0.37279c0,0 0.09849,-0.91285 0.86978,-1.19484zM368.50635,318.4152c0.10329,0.2642 0.09041,0.56558 0.16239,0.8416c0.09051,0.34704 0.28579,0.66108 0.37517,1.00841c0.07416,0.28821 0.04663,0.64023 0.19799,0.91787c0.21884,0.40141 0.51709,0.75756 0.72107,1.16672c0.05238,0.10506 0.02542,0.24371 0.09306,0.33966c0.23746,0.33686 0.55675,0.61329 0.77781,0.96114c0.76396,0.94608 1.50732,1.9231 2.22771,2.90215c0.37561,0.51046 0.29948,0.62041 0.73631,1.05921c0.92733,0.93149 1.90401,1.18808 3.15027,0.98378c0.76693,-0.12573 1.45183,-0.42503 2.17558,-0.6943c0.34883,-0.12978 0.74724,-0.15948 1.05277,-0.37203c0.79502,-0.55307 1.57837,-1.12295 2.35595,-1.70027c0.13791,-0.10239 0.30611,-0.24313 0.49667,-0.40739c-1.28228,0.27734 -2.98394,0.12543 -4.1219,-0.38206c-0.68223,-0.30424 -1.28809,-0.75829 -1.95147,-1.1017c-1.4858,-0.76915 -3.14039,-1.27805 -4.5925,-2.11204c-0.95943,-0.55103 -1.99726,-1.40079 -2.74769,-2.20193c-0.37385,-0.39912 -0.74293,-0.80269 -1.10918,-1.20883z" fill="#b9b9b9" stroke-width="0.5"/><path d="M412.36749,294.02381c-0.52998,1.15798 -1.6206,0.80905 -1.84846,0.72087c-0.99771,-0.10849 -1.9935,-0.2127 -2.98979,-0.34082c-0.65429,-0.33324 -1.22971,-0.0931 -1.96694,-0.2727c-0.17637,-0.04297 -0.31419,-0.20127 -0.49332,-0.2307c-0.17948,-0.02948 -2.08322,-0.09842 -2.40268,-0.12433c-0.13125,-0.01065 -1.29248,-0.18901 -1.65798,-0.12253c-2.27646,0.41407 -4.54105,1.149 -6.57196,2.30538c-1.62383,0.92459 -3.10213,2.08804 -4.71144,3.03767c-0.84093,0.49622 -2.44973,0.90017 -3.1049,1.82176c0,0 -0.89053,1.11439 -2.00492,0.22387c-1.11439,-0.89053 -0.22386,-2.00492 -0.22386,-2.00492c0.2293,-0.27187 0.41155,-0.59172 0.68789,-0.8156c0.93889,-0.76064 2.16701,-1.07465 3.20751,-1.68904c1.6318,-0.96354 3.13263,-2.14114 4.7806,-3.07676c1.69951,-0.96489 3.59346,-1.72524 5.48862,-2.1881c0.42881,-0.10473 0.87687,-0.11172 1.30819,-0.20554c0.2039,-0.04435 0.38422,-0.17682 0.59062,-0.20749c1.05988,-0.15748 1.36455,-0.00875 2.43421,0.07698c1.10943,0.08892 1.64959,0.00084 2.8855,0.20421c0.19624,0.03229 0.35477,0.18416 0.54436,0.24423c0.42888,0.1359 0.90488,-0.05588 1.34964,0.01189c0.22083,0.03365 0.41153,0.17387 0.6173,0.26081c0.93775,0.05045 1.83542,0.1813 2.76478,0.27976l0.61359,0.20032c0,0 1.29711,0.59366 0.70345,1.89077z" fill="#b9b9b9" stroke-width="0.5"/><path d="M416.53003,339.38452c-5.34416,-12.59357 0.53265,-27.13496 13.12622,-32.47912c12.59357,-5.34416 27.13496,0.53265 32.47912,13.12621c5.34416,12.59357 -0.53264,27.13497 -13.12621,32.47912c-12.59357,5.34416 -27.13497,-0.53265 -32.47913,-13.12621z" fill="#000000" stroke-width="0"/><path d="M433.92907,325.91564c-1.12334,0.99137 -2.11471,-0.13197 -2.11471,-0.13197l-0.418,-0.47364c-0.43398,-0.49891 -0.94133,-0.89962 -1.43116,-1.34279c-0.26022,-0.08757 -0.76422,-0.43294 -0.96515,-0.42783c-0.54958,0.014 -1.2876,0.22119 -1.76171,0.50382c-0.32483,0.19364 -0.49463,0.57243 -0.75287,0.84869c-0.777,0.83121 -1.43176,1.74651 -2.19395,2.56684c-0.26278,0.28283 -0.2027,1.58067 -0.26876,1.85129c-0.13899,0.56936 -0.42564,1.11527 -0.44481,1.70103c0,0 -0.09332,1.49533 -1.58865,1.40202c-1.49533,-0.09331 -1.40201,-1.58864 -1.40201,-1.58864c0.02997,-0.37666 0.0032,-0.7622 0.08989,-1.12996c0.08642,-0.36663 0.33197,-0.6823 0.42343,-1.04771c0.06378,-0.25482 -0.00725,-0.5281 0.03581,-0.78723c0.09747,-0.58661 0.35469,-1.60235 0.70921,-2.13183c0.1442,-0.21536 0.39653,-0.33723 0.56488,-0.53429c0.65262,-0.76395 1.18135,-1.59265 1.87716,-2.3383c0.55237,-0.59194 0.65372,-0.89213 1.3534,-1.34717c0.96926,-0.63034 2.54268,-1.04718 3.69943,-0.94562c0.64478,0.05661 1.58181,0.58468 2.17799,0.84245c0.74895,0.61657 1.47879,1.19825 2.12455,1.92248l0.418,0.47364c0,0 0.99137,1.12334 -0.13196,2.11471z" fill="#b9b9b9" stroke-width="0.5"/><path d="M451.48587,317.84967c0.24241,0.13371 0.47041,0.36637 0.63535,0.75506c0.58527,1.3792 -0.79392,1.96446 -0.79392,1.96446l-2.14835,-0.71589c-0.26898,-0.74254 -1.15728,-1.67676 -1.82434,-2.10011c-0.95412,-0.36635 -1.91699,-0.43667 -2.9234,-0.4993c-0.30242,-0.01883 -0.61455,-0.22471 -0.90048,-0.12442c-0.24864,0.08721 -0.49802,0.18624 -0.75942,0.21939c-0.03781,0.0048 0.11375,-0.00279 0.10886,0.03501c-0.01787,0.138 -0.12606,0.25013 -0.16315,0.38425c-0.11857,0.42873 -0.14455,0.87829 -0.24107,1.31252c-0.21125,0.95041 -0.58515,1.86412 -0.81329,2.7938c-0.19513,0.79512 -0.29243,1.61343 -0.51157,2.40227c0,0 -0.40455,1.44258 -1.84714,1.03802c-1.44259,-0.40456 -1.03802,-1.84714 -1.03802,-1.84714c0.22011,-0.77632 0.30768,-1.58496 0.5022,-2.36808c0.22099,-0.88965 0.57764,-1.74802 0.77998,-2.65649c0.21688,-0.97372 0.30134,-2.4534 1.08619,-3.19464c0.73425,-0.69346 2.25521,-1.14418 3.24956,-1.12036c0.24002,0.00575 0.46813,0.11869 0.70775,0.13368c1.46282,0.09151 2.78232,0.26668 4.15409,0.83747c1.04147,0.6929 2.0482,1.65686 2.74021,2.75049z" fill="#b9b9b9" stroke-width="0.5"/><path d="M427.88859,337.73245c-0.04084,-0.1252 -0.06942,-0.26681 -0.08219,-0.42695c-0.1191,-1.4935 1.3744,-1.61259 1.3744,-1.61259c0.32535,-0.01254 0.6528,-0.0767 0.97603,-0.03763c0.22158,0.02678 0.40817,0.19445 0.62826,0.23155c0.74579,0.1257 2.08899,-0.02853 2.72588,-0.02624c0.78217,0.00281 1.57476,0.12872 2.34653,0.00159c2.32702,-0.3833 4.291,-1.56414 6.48958,-2.3662c0.64489,-0.23526 1.3298,-0.35597 1.96502,-0.61622c0.68831,-0.282 1.17469,-0.95217 1.66795,-1.45426c0.16958,-0.17261 0.35644,-0.35565 0.42686,-0.58716c0.69949,-1.05671 1.6253,-1.96885 2.6176,-2.75705c0.15643,-0.12425 0.45575,-0.12401 0.57416,-0.25924l0.19533,-0.48331c0.14367,-0.3555 0.42296,-0.65619 0.80382,-0.8178c0.76171,-0.32324 1.64123,0.03222 1.96447,0.79393c0.16162,0.38085 0.15356,0.79116 0.00989,1.14666l-0.2834,0.70123c-0.14184,0.54647 -0.25282,1.08658 -0.33765,1.83246c-0.22584,1.98581 -0.2256,4.04516 -0.57113,6.01929c-0.13328,0.76149 -0.62843,1.61091 -0.91884,2.32518c-1.14277,2.81069 -3.09791,4.87289 -6.31702,5.00934c-0.62161,0.02635 -1.23714,-0.13365 -1.85585,-0.19926c-1.26979,-0.13466 -2.55349,-0.24719 -3.8285,-0.32842c-0.451,-0.09308 -0.92303,-0.02217 -1.37864,-0.0892c-0.2514,-0.03698 -0.47347,-0.18735 -0.71841,-0.25498c-0.46286,-0.1278 -0.95526,-0.13043 -1.4155,-0.26735c-0.50254,-0.1495 -0.94007,-0.46533 -1.3995,-0.71796c-0.33007,-0.18149 -0.7182,-0.24092 -1.04771,-0.42343c-0.14149,-0.07837 -0.22462,-0.25763 -0.38035,-0.30133c-0.28672,-0.08046 -0.60943,0.03941 -0.89164,-0.05564c-0.51125,-0.17218 -0.95794,-0.61231 -1.42533,-0.88549c-0.28677,-0.16761 -0.64029,-0.23879 -0.87856,-0.47021c-0.22416,-0.21771 -0.301,-0.54771 -0.45151,-0.82156l-0.2737,-0.2809c0,0 -0.63808,-0.72302 -0.31036,-1.52086zM433.12348,338.94416c0.27804,0.10706 0.50261,0.33055 0.76764,0.47026c0.33322,0.17565 0.71507,0.24669 1.04771,0.42343c0.27602,0.14666 0.52948,0.41738 0.85199,0.49668c0.46629,0.11466 0.95373,0.13568 1.4155,0.26735c0.11857,0.03381 0.20699,0.15293 0.3293,0.16845c0.42942,0.0545 0.86996,0.00273 1.29629,0.07773c1.2748,0.07779 2.55899,0.19349 3.8285,0.32842c0.6619,0.07035 0.69324,0.20727 1.34293,0.17938c1.37921,-0.05922 2.27005,-0.6348 2.99446,-1.74591c0.44579,-0.68376 0.69888,-1.42688 1.00278,-2.17883c0.14647,-0.36243 0.40567,-0.6924 0.45729,-1.07989c0.13432,-1.00827 0.24734,-2.0194 0.3505,-3.03132c0.0183,-0.17947 0.02831,-0.4096 0.03594,-0.67372c-0.6933,1.19078 -2.01653,2.40268 -3.21617,2.92559c-0.7192,0.31349 -1.50047,0.46166 -2.23669,0.73279c-1.64895,0.60728 -3.21565,1.52979 -4.89101,2.06501c-1.10694,0.35362 -2.50105,0.55643 -3.65387,0.57082c-0.57432,0.00717 -1.14871,0.00747 -1.72309,0.00377z" fill="#b9b9b9" stroke-width="0.5"/><path d="M445.28049,287.65445c0.52249,1.23126 -0.52066,1.82978 -0.75045,1.94401c-0.79089,0.6968 -1.57711,1.39514 -2.38221,2.07693c-0.7219,0.27129 -0.9433,0.8876 -1.60482,1.33204c-0.15826,0.10633 -0.37864,0.10105 -0.52835,0.21911c-0.15,0.11829 -1.55205,1.54567 -1.79844,1.77503c-0.10123,0.09423 -1.06214,0.86833 -1.2695,1.19884c-1.29154,2.05856 -2.32586,4.33519 -2.86785,6.72918c-0.43335,1.91413 -0.57839,3.88462 -0.98204,5.80523c-0.21092,1.0036 -1.03734,2.53726 -0.78683,3.69814c0,0 0.23329,1.47996 -1.24667,1.71326c-1.47996,0.23329 -1.71325,-1.24667 -1.71325,-1.24667c-0.04838,-0.37039 -0.1673,-0.73829 -0.14515,-1.11117c0.07528,-1.26688 0.70178,-2.44163 0.96244,-3.68368c0.4088,-1.9479 0.55883,-3.94589 1.00072,-5.88655c0.45572,-2.00137 1.20777,-4.0086 2.19136,-5.80605c0.22256,-0.4067 0.53453,-0.75908 0.76733,-1.16001c0.11005,-0.18953 0.13506,-0.42319 0.2575,-0.60497c0.62869,-0.93341 0.95985,-1.0643 1.78406,-1.83302c0.85486,-0.79729 1.16921,-1.27854 2.20241,-2.09283c0.16405,-0.12929 0.39412,-0.14465 0.575,-0.2491c0.40919,-0.23629 0.59767,-0.74125 0.96529,-1.03813c0.18252,-0.1474 0.42635,-0.19594 0.63953,-0.29391c0.70341,-0.69142 1.44077,-1.2948 2.17547,-1.9457l0.58999,-0.33389c0,0 1.3792,-0.58527 1.96447,0.79393z" fill="#b9b9b9" stroke-width="0.5"/></g><path d="M44.65721,138.8649c-0.7266,-4.03307 3.39913,-5.40832 3.39913,-5.40832c10.18539,-3.3713 18.90739,-8.82675 27.71626,-14.90636c3.80117,-2.62345 8.05294,-5.12136 11.58887,-8.12749c1.89811,-1.61371 9.01652,-10.46463 12.67326,-3.89134c3.07535,5.5282 -2.41381,18.83951 -4.3474,24.45262c-1.11352,3.2325 -3.00218,6.15644 -4.18361,9.36475c-0.23483,0.63772 0.23841,1.38003 0.07238,2.038c3.01782,-0.28371 6.01993,-0.18676 9.06137,-0.18676c4.12971,0 8.29446,0.57469 12.38908,0.03746c6.07317,-0.79682 12.90789,-4.32562 19.19203,-4.01988c3.38644,0.16476 8.14049,-0.31794 9.82726,2.62313c4.30017,7.4978 -6.82877,10.83637 -9.89874,12.68384c-6.36406,3.82981 -13.8926,8.69073 -18.96406,14.20092c-2.13592,2.32069 -3.90739,4.95227 -5.88818,7.40669c-0.86259,1.06884 -1.3122,2.41433 -1.91398,3.64898c-0.15937,0.32696 -0.74678,0.39377 -0.78766,0.7552c-0.02674,0.23641 0.4797,0.09389 0.67651,0.22759c1.31954,0.8964 2.72019,1.7172 3.84761,2.84575c5.07112,5.07619 8.99314,10.97927 14.59718,15.6493c1.6475,1.37292 3.93751,1.8936 5.45847,3.40549c1.40585,1.39746 2.0554,3.39007 3.08311,5.08511c2.03884,1.2656 3.657,3.11055 5.5513,4.58371c4.89174,3.80421 11.24041,6.67535 14.88627,11.94316c0.84836,1.22577 1.13419,2.78649 2,4c0.78461,1.0997 2.07427,1.76576 2.88482,2.84649c1.16618,1.55493 1.80715,3.46543 3,5c1.19611,1.53877 2.96729,2.57844 4.11518,4.15351c3.09684,4.24929 3.8722,9.18982 4.66962,14.19488l1.70132,3.40263c0.36581,0.69482 0.57285,1.48625 0.57285,2.32604c0,2.76142 -2.23858,5 -5,5c-0.33946,0 -0.67101,-0.03383 -0.99148,-0.0983l-9.74165,-1.77121l0.00407,-0.02236c-0.0757,-0.00756 -0.15139,-0.01538 -0.22707,-0.02345c-3.38996,-0.36171 -6.57208,-1.81618 -9.85592,-2.73216c-1.17856,-0.32874 -2.45256,-0.45307 -3.65202,-0.73835c0.20468,1.33811 0.36532,2.68205 0.4515,4.03139c0.70342,11.01451 -4.73864,21.048 -9.53561,30.63071c-1.82963,3.65497 -3.88719,11.71056 -8.6673,13.39445c-5.56716,1.96115 -10.21649,-1.73616 -13.94815,-4.79884c-1.96821,-1.61536 -12.17756,-11.03193 -14.58692,-12.69641c-1.74781,-1.20746 -3.87482,-1.75949 -5.71293,-2.82445c-1.08907,-0.63098 -7.96314,-5.05512 -10.91905,-6.95515c-4.28013,-1.9393 -15.14249,-6.71004 -18.84621,-9.06019c-0.96767,-0.61403 -1.31909,-1.89882 -2.16906,-2.66756c-1.34414,-1.21567 -2.76987,-2.3424 -4.23085,-3.41484c-1.71339,-1.25772 -4.24592,-0.26551 -6.37134,-0.25325c-5.69936,0.03286 -10.20497,-0.84219 -14.92294,2.94103c-1.31224,1.05225 -2.36102,2.39634 -3.54153,3.59451l-0.93256,0.42036c-0.76133,1.78943 -2.53563,3.04411 -4.60298,3.04411c-2.54654,0 -4.64844,-1.90374 -4.96014,-4.36566l-0.9896,-6.92723l0.03287,-0.0047c-0.02467,-0.11566 -0.0482,-0.23164 -0.07054,-0.34797c-2.00213,-10.42359 0.77686,-11.78798 3.62038,-21.20456c1.46748,-4.85968 1.81289,-10.05201 3.64271,-14.78717c1.34625,-3.48378 2.65511,-7.03965 4.66692,-10.18635c1.72849,-2.70356 4.65689,-4.49039 6.42746,-7.16657c0.4194,-0.63392 0.51948,-1.42014 0.61746,-2.20529c-4.15464,-1.72077 -13.92684,-6.61168 -15.49714,-7.47994c-5.05317,-2.79404 -7.58272,-5.84787 -8.4529,-11.71363c-0.13301,-0.8966 0.60088,-1.8285 0.34314,-2.6975c-0.16538,-0.55759 -1.12758,-0.4973 -1.43681,-0.98987c-1.13823,-1.81305 -2.32312,-3.69017 -2.81003,-5.77479c-1.36346,-5.83736 0.89079,-6.8326 4.08898,-11.42477c6.91798,-6.94373 14.71401,-14.7543 23.55546,-19.20323c1.42329,-0.71619 3.08656,-0.90343 4.46936,-1.69497c0.85978,-0.49215 1.25369,-1.6054 2.1238,-2.07905c0.57538,-0.31321 1.45219,0.26984 1.96004,-0.14399c0.32268,-0.26294 -0.19595,-0.80911 -0.29393,-1.21367l-0.03746,-3.38908c0,0 0,-0.12485 0.01973,-0.3351zM54.61704,141.71603l-0.01702,2.09488c-0.76464,2.26211 -0.8824,4.86035 -2.29393,6.78633c-0.87604,1.19532 -2.79084,1.05855 -4.03996,1.85601c-0.75443,0.48164 -1.09878,1.47739 -1.8762,1.92095c-3.1774,1.81287 -6.9061,2.68211 -9.8289,4.88201c-5.65092,4.25326 -11.13778,9.23534 -16.14628,14.2198c-0.67795,0.76838 -1.42321,1.48225 -2.03385,2.30513c-0.56008,0.75475 0.7652,1.73146 1.31279,2.49531c0.76784,1.07107 2.12824,1.76612 2.56319,3.01013c0.82353,2.35544 -0.2733,5.16597 0.7316,7.44992c0.5121,1.1639 2.0381,1.53786 3.15863,2.13894c5.4856,2.94262 11.7433,4.45879 16.90114,7.94412c2.23753,1.51198 4.87028,3.27812 5.56489,5.88774c0.48717,1.83028 -1.94025,3.26884 -2.6615,5.02014c-0.56167,1.3638 -0.35151,3.03803 -1.16411,4.26893c-1.90513,2.88582 -4.91551,4.93144 -6.81658,7.81993c-4.4265,6.72566 -4.85418,14.9741 -7.13157,22.43794c-0.91473,2.9979 -2.71432,5.72997 -3.27774,8.81327c-0.32036,1.7532 -0.00827,3.56394 0.15147,5.35933c6.3907,-4.3641 12.2914,-4.26535 19.92436,-4.22685c4.98415,0.02514 7.30666,-0.6396 11.62866,1.74675c1.01731,0.56169 1.63155,1.66351 2.54129,2.38654c1.01916,0.81 2.26269,1.32499 3.22786,2.19862c0.69041,0.62493 0.88282,1.74459 1.67296,2.23741c1.17574,0.73332 16.81417,7.80797 17.31177,8.03484c3.70113,2.33649 7.29477,4.84887 11.08095,7.04485c2.03096,1.17795 4.35689,1.83884 6.28707,3.17555c2.87934,1.99403 5.3983,4.46459 8.04964,6.75306c2.48689,2.14652 4.87881,4.40139 7.36344,6.55053c0.9298,0.80425 1.91257,1.54522 2.87721,2.30734c0.38606,0.30501 0.74817,1.13918 1.17464,0.89382c0.54543,-0.31379 0.22863,-1.24509 0.45588,-1.83188c0.8859,-2.28754 1.78087,-4.57901 2.87682,-6.77367c0.83753,-1.67716 2.17163,-3.08958 2.90925,-4.81302c1.19997,-2.80369 1.78957,-5.83533 2.86896,-8.68762c0.80449,-2.12585 2.27398,-4.01152 2.77572,-6.22843c0.41507,-1.83393 0.06366,-3.76616 -0.08953,-5.64023c-0.17022,-2.08225 -0.46141,-4.1586 -0.87882,-6.20568c-0.23405,-1.14786 -1.1956,-2.18321 -1.06919,-3.34785c0.30135,-2.77636 -0.25925,-6.95215 2.30678,-8.05417c0.40096,-0.1722 12.70544,3.19992 15.49285,3.97054c3.13262,0.86606 6.42299,1.29539 9.39442,2.6114l1.3674,0.24862c-0.46216,-2.73938 -1.16138,-5.70002 -2.68223,-7.65375c-1.11937,-1.43799 -2.7656,-2.40838 -3.88482,-3.84649c-3.01621,-3.87561 -5.51425,-8.04955 -8.11518,-12.15351c-2.72816,-4.30471 -9.25786,-7.05747 -13.11373,-10.05684c-2.21575,-1.72356 -4.14966,-3.8055 -6.4487,-5.41629c-0.9723,-1.6383 -1.57438,-3.56321 -2.91689,-4.91489c-1.22861,-1.23701 -3.20216,-1.47837 -4.54153,-2.59451c-5.91755,-4.93129 -10.06371,-11.01706 -15.40282,-16.3507c-3.5491,-3.54547 -6.31407,-2.86368 -7.47588,-8.92666c-0.3377,-1.7623 0.72344,-3.51833 1.21234,-5.2448c1.58215,-5.58711 6.46954,-10.93539 10.19785,-14.94433c3.24343,-3.48756 7.17978,-6.26301 11.04339,-9.06651c-0.95307,0.23338 -1.91314,0.42955 -2.8869,0.55451c-0.33242,0.04266 -10.82379,0.03746 -13.61092,0.03746c-4.75251,0 -12.32052,0.87065 -16.30901,-2.25161c-1.70651,-1.33588 -2.171,-3.82868 -2.62642,-5.94748c-0.41679,-1.93907 -0.43183,-4.03064 0.06919,-5.94968c0.63384,-2.42775 2.26068,-4.48347 3.25605,-6.78672c1.22978,-2.84565 1.88352,-5.92377 2.83388,-8.87699c-0.45643,0.30275 -0.92674,0.61647 -1.41753,0.95078c-10.31459,7.0259 -20.24793,13.89855 -31.82659,18.37774z" fill="#ff6666" stroke-width="0.5"/><path d="M86.4423,123.28831c0.49079,-0.33431 0.96295,-0.54805 1.41937,-0.8508c-0.95036,2.95323 -1.60224,6.03129 -2.83202,8.87694c-0.99537,2.30325 -2.61974,4.3588 -3.25358,6.78654c-0.50102,1.91903 -0.49613,3.91112 -0.07934,5.85019c0.45543,2.1188 0.92156,4.61145 2.62806,5.94733c3.98849,3.12225 11.57025,2.2525 16.32276,2.2525c2.78713,0 13.2886,0.00842 13.62102,-0.03424c0.97376,-0.12496 1.8918,-0.23042 2.84487,-0.4638c-3.86361,2.8035 -7.79469,5.58115 -11.03811,9.06871c-3.72831,4.00894 -8.60928,9.35901 -10.19143,14.94612c-0.4889,1.72648 -1.52989,3.38455 -1.1922,5.14685c1.1618,6.06298 3.94446,5.38853 7.49356,8.934c5.33911,5.33365 9.50718,11.45446 15.42473,16.38575c1.33936,1.11614 3.31332,1.36224 4.54193,2.59925c1.34251,1.35168 1.94438,3.28349 2.91667,4.92179c2.29903,1.61079 4.23211,3.69809 6.44786,5.42165c3.85587,2.99937 10.38397,5.75794 13.11212,10.06266c2.60093,4.10396 5.09658,8.28366 8.1128,12.15927c1.11922,1.43811 2.76493,2.40952 3.8843,3.84751c1.52084,1.95373 2.21842,4.91732 2.68058,7.65669l-1.36756,-0.24836c-2.97144,-1.31602 -6.26282,-1.74376 -9.39544,-2.60982c-2.78741,-0.77062 -15.09465,-4.13899 -15.49561,-3.96679c-2.56604,1.10202 -2.00974,5.28247 -2.31109,8.05883c-0.12641,1.16464 0.83426,2.20081 1.06831,3.34867c0.41741,2.04708 0.70668,4.12509 0.8769,6.20734c0.1532,1.87406 0.50272,3.80776 0.08766,5.64169c-0.50174,2.21691 -1.97441,4.10475 -2.77889,6.2306c-1.07939,2.85229 -1.67266,5.88603 -2.87263,8.68972c-0.73762,1.72344 -2.07422,3.13707 -2.91174,4.81423c-1.09595,2.19466 -1.99364,4.48727 -2.87954,6.7748c-0.22725,0.58678 0.08901,1.51829 -0.45642,1.83208c-0.42647,0.24535 -0.78898,-0.58866 -1.17505,-0.89367c-0.96464,-0.76211 -1.94843,-1.50273 -2.87823,-2.30698c-2.48463,-2.14914 -4.87948,-4.40313 -7.36637,-6.54965c-2.65134,-2.28847 -5.1744,-4.75813 -8.05373,-6.75215c-1.93018,-1.33671 -4.26021,-1.99704 -6.29116,-3.17499c-3.78618,-2.19598 -7.38836,-4.7083 -11.08949,-7.04479c-0.4976,-0.22687 -16.15142,-7.30523 -17.32716,-8.03855c-0.79015,-0.49282 -0.98453,-1.61335 -1.67493,-2.23828c-0.96517,-0.87363 -2.21181,-1.39021 -3.23096,-2.20021c-0.90974,-0.72304 -1.52664,-1.82644 -2.54395,-2.38813c-4.322,-2.38634 -6.65156,-1.72708 -11.6357,-1.75221c-7.63297,-0.0385 -13.53878,-0.14278 -19.92948,4.22132c-0.15974,-1.7954 -0.47355,-3.60843 -0.15319,-5.36163c0.56341,-3.08329 2.36086,-5.81869 3.27559,-8.81659c2.27739,-7.46384 2.6994,-15.7264 7.1259,-22.45205c1.90107,-2.88849 4.91036,-4.94091 6.81548,-7.82673c0.8126,-1.2309 0.60223,-2.90997 1.1639,-4.27378c0.72126,-1.7513 3.1491,-3.19607 2.66193,-5.02635c-0.69461,-2.60962 -3.32636,-4.38111 -5.56389,-5.89309c-5.15784,-3.48533 -11.41479,-5.00423 -16.90039,-7.94685c-1.12053,-0.60108 -2.6463,-0.97582 -3.15839,-2.13972c-1.0049,-2.28396 0.0936,-5.09892 -0.72993,-7.45436c-0.43494,-1.24402 -1.79488,-1.94012 -2.56272,-3.01119c-0.5476,-0.76385 -1.87241,-1.74156 -1.31232,-2.4963c0.61064,-0.82288 1.35677,-1.53846 2.03472,-2.30683c5.00851,-4.98446 10.50361,-9.97783 16.15453,-14.23109c2.92281,-2.1999 6.65706,-3.07406 9.83446,-4.88693c0.77742,-0.44356 1.1233,-1.44043 1.87772,-1.92207c1.24912,-0.79745 3.16654,-0.66241 4.04258,-1.85773c1.41153,-1.92598 1.53251,-4.52604 2.29715,-6.78815l0.01759,-2.09517c11.57866,-4.47919 21.53303,-11.3571 31.84762,-18.383z" data-paper-data="{&quot;noHover&quot;:false,&quot;origItem&quot;:[&quot;Path&quot;,{&quot;applyMatrix&quot;:true,&quot;segments&quot;:[[[54.61704,141.71603],[11.57866,-4.47919],[0,0]],[[54.60002,143.81091],[0,0],[-0.76464,2.26211]],[[52.30609,150.59724],[1.41153,-1.92598],[-0.87604,1.19532]],[[48.26614,152.45325],[1.24912,-0.79745],[-0.75443,0.48164]],[[46.38994,154.3742],[0.77742,-0.44356],[-3.1774,1.81287]],[[36.56103,159.25621],[2.92281,-2.1999],[-5.65092,4.25326]],[[20.41475,173.47601],[5.00851,-4.98446],[-0.67795,0.76838]],[[18.3809,175.78114],[0.61064,-0.82288],[-0.56008,0.75475]],[[19.69369,178.27645],[-0.5476,-0.76385],[0.76784,1.07107]],[[22.25688,181.28658],[-0.43494,-1.24402],[0.82353,2.35544]],[[22.98848,188.7365],[-1.0049,-2.28396],[0.5121,1.1639]],[[26.14712,190.87545],[-1.12053,-0.60108],[5.4856,2.94262]],[[43.04826,198.81957],[-5.15784,-3.48533],[2.23753,1.51198]],[[48.61315,204.70731],[-0.69461,-2.60962],[0.48717,1.83028]],[[45.95165,209.72744],[0.72126,-1.7513],[-0.56167,1.3638]],[[44.78754,213.99638],[0.8126,-1.2309],[-1.90513,2.88582]],[[37.97095,221.81631],[1.90107,-2.88849],[-4.4265,6.72566]],[[30.83938,244.25424],[2.27739,-7.46384],[-0.91473,2.9979]],[[27.56165,253.06751],[0.56341,-3.08329],[-0.32036,1.7532]],[[27.71312,258.42685],[-0.15974,-1.7954],[6.3907,-4.3641]],[[47.63748,254.2],[-7.63297,-0.0385],[4.98415,0.02514]],[[59.26614,255.94674],[-4.322,-2.38634],[1.01731,0.56169]],[[61.80743,258.33329],[-0.90974,-0.72304],[1.01916,0.81]],[[65.03529,260.5319],[-0.96517,-0.87363],[0.69041,0.62493]],[[66.70825,262.76931],[-0.79015,-0.49282],[1.17574,0.73332]],[[84.02002,270.80415],[-0.4976,-0.22687],[3.70113,2.33649]],[[95.10098,277.849],[-3.78618,-2.19598],[2.03096,1.17795]],[[101.38804,281.02454],[-1.93018,-1.33671],[2.87934,1.99403]],[[109.43768,287.7776],[-2.65134,-2.28847],[2.48689,2.14652]],[[116.80112,294.32813],[-2.48463,-2.14914],[0.9298,0.80425]],[[119.67833,296.63547],[-0.96464,-0.76211],[0.38606,0.30501]],[[120.85297,297.52929],[-0.42647,0.24535],[0.54543,-0.31379]],[[121.30885,295.69741],[-0.22725,0.58678],[0.8859,-2.28754]],[[124.18567,288.92374],[-1.09595,2.19466],[0.83753,-1.67716]],[[127.09492,284.11071],[-0.73762,1.72344],[1.19997,-2.80369]],[[129.96387,275.42309],[-1.07939,2.85229],[0.80449,-2.12585]],[[132.73959,269.19467],[-0.50174,2.21691],[0.41507,-1.83393]],[[132.65006,263.55444],[0.1532,1.87406],[-0.17022,-2.08225]],[[131.77124,257.34876],[0.41741,2.04708],[-0.23405,-1.14786]],[[130.70204,254.00091],[-0.12641,1.16464],[0.30135,-2.77636]],[[133.00883,245.94674],[-2.56604,1.10202],[0.40096,-0.1722]],[[148.50167,249.91728],[-2.78741,-0.77062],[3.13262,0.86606]],[[157.8961,252.52868],[-2.97144,-1.31602],[0,0]],[[159.2635,252.7773],[0,0],[-0.46216,-2.73938]],[[156.58127,245.12355],[1.52084,1.95373],[-1.11937,-1.43799]],[[152.69645,241.27706],[1.11922,1.43811],[-3.01621,-3.87561]],[[144.58127,229.12355],[2.60093,4.10396],[-2.72816,-4.30471]],[[131.46754,219.06671],[3.85587,2.99937],[-2.21575,-1.72356]],[[125.01884,213.65042],[2.29903,1.61079],[-0.9723,-1.6383]],[[122.10195,208.73553],[1.34251,1.35168],[-1.22861,-1.23701]],[[117.56042,206.14102],[1.33936,1.11614],[-5.91755,-4.93129]],[[102.1576,189.79032],[5.33911,5.33365],[-3.5491,-3.54547]],[[94.68172,180.86366],[1.1618,6.06298],[-0.3377,-1.7623]],[[95.89407,175.61886],[-0.4889,1.72648],[1.58215,-5.58711]],[[106.09191,160.67453],[-3.72831,4.00894],[3.24343,-3.48756]],[[117.1353,151.60802],[-3.86361,2.8035],[-0.95307,0.23338]],[[114.2484,152.16253],[0.97376,-0.12496],[-0.33242,0.04266]],[[100.63748,152.2],[2.78713,0],[-4.75251,0]],[[84.32847,149.94839],[3.98849,3.12225],[-1.70651,-1.33588]],[[81.70204,144.00091],[0.45543,2.1188],[-0.41679,-1.93907]],[[81.77124,138.05123],[-0.50102,1.91903],[0.63384,-2.42775]],[[85.02729,131.26451],[-0.99537,2.30325],[1.22978,-2.84565]],[[87.86116,122.38752],[-0.95036,2.95323],[-0.45643,0.30275]],[[86.44363,123.3383],[0.49079,-0.33431],[-10.31459,7.0259]]],&quot;closed&quot;:true}]}" fill="#66ff9f" stroke-width="0.5"/><path d="M65.02172,193.48733c-0.34591,-1.4223 -0.49372,-3.32991 -0.73524,-3.82384c-0.1497,-0.30615 -0.41489,-0.52157 -0.70113,-0.72258c-0.0038,0.1526 -0.00795,0.30533 -0.01244,0.45817l0.80798,2.21977c0,0 0.3013,0.90391 0.24627,2.0541c0.13295,-0.0662 0.26499,-0.1297 0.39455,-0.18563zM63.93836,177.2c1.03337,-0.37772 4.81582,-1.80892 4.83288,-3.14876c0.02326,-1.82651 -0.5622,-3.61089 -0.91922,-5.40231c-0.1135,-0.56951 -0.06949,-1.27173 -0.49055,-1.67165c-0.31555,-0.2997 -0.88184,0.06724 -1.30513,-0.03385c-1.4528,-0.34696 -2.92585,-0.78725 -4.41886,-0.74342c0,0 -0.12195,0 -0.32777,-0.01905c0.86593,3.66335 1.47561,7.32363 1.84985,11.01905zM61.63748,156.2c3.42945,0.05825 9.67179,0.58989 12.27601,3.22273c3.91872,3.96179 5.19736,11.98394 4.59024,16.92603c-0.42571,3.46531 -2.93409,5.82744 -5.861,7.55581c0.90512,1.9853 1.32185,4.31038 1.79536,5.89749c0.35944,1.20479 1.11798,2.33987 1.13484,3.59703c0.03105,2.31629 0.436,5.05587 -0.99441,6.87797c-1.45878,1.85824 -4.3351,1.88339 -6.54309,2.72354c-3.03834,1.15611 -5.94986,2.0429 -9.31136,0.8188c-1.48998,-0.54258 -2.41474,-2.05591 -3.62212,-3.08386l-1.46447,-4.53553c0,0 0,-1.48524 0.80948,-2.83674l-0.74492,-2.36235c-0.1485,-8.7424 -0.40074,-17.01153 -2.87218,-25.42731c0,0 -1.37361,-4.80762 3.43401,-6.18123c1.05009,-0.30002 1.93634,-0.30516 2.68024,-0.1299c1.08726,-3.06248 4.69337,-3.06248 4.69337,-3.06248z" fill="#ff6666" stroke-width="0.5"/><path d="M59.52426,216.26975c-0.26396,1.00989 -0.72653,1.70375 -0.72653,1.70375c-2.70452,4.03111 -4.84775,7.80085 -4.37479,12.77758c0.10462,1.10092 1.78604,1.37607 2.83722,1.71955c0.98884,0.32311 2.05762,0.37281 3.03514,0.72748c0.24792,-1.08717 0.39085,-2.21383 0.86294,-3.21993c0.6936,-1.47817 2.07423,-2.58899 2.66066,-4.11285c0.28264,-0.73446 -0.10942,-1.57015 -0.17176,-2.35464c-0.16199,-2.03839 -0.28695,-4.08038 -0.50124,-6.11393c-0.08697,-0.82533 -1.65823,-0.25235 -2.42184,-0.57736c-0.40495,-0.17236 -0.80414,-0.35717 -1.1998,-0.54964zM51.64266,211.20056c-0.95715,-1.18776 -1.86849,-3.21947 -0.16543,-5.77406c2.7735,-4.16025 6.93375,-1.38675 6.93375,-1.38675l2.73613,1.8357c3.6026,1.80475 9.31765,2.79996 10.98194,7.12779c0.55956,1.45508 2.29003,12.36827 1.327,15.53143c-0.6571,2.15828 -2.29967,3.88489 -3.33934,5.88715c-2.8995,5.58403 -1.84261,8.15591 -9.16855,8.76852c-2.34086,0.19575 -4.70676,-0.51253 -6.93337,-1.26097c-2.02857,-0.68188 -4.09853,-1.54607 -5.68633,-2.98098c-8.05381,-7.27827 -2.62267,-19.32634 2.14876,-26.52189c0,0 0.41526,-0.62289 1.16543,-1.22594z" fill="#ff6666" stroke-width="0.5"/><path d="M97.10195,258.66446c0.15338,-0.15338 0.30676,-0.29346 0.45986,-0.42109l-1.92432,-0.04338c0.01569,-2.25213 0.32007,-4.39615 0.60673,-6.53712c-0.90987,0.94742 -2.18943,1.53712 -3.60673,1.53712c-2.76142,0 -5,-2.23858 -5,-5v-1.90223c-0.48833,1.03095 -0.99749,2.07396 -1.52786,3.1383l-1.95156,3.90312c-0.80172,1.69123 -2.52456,2.86082 -4.52058,2.86082c-2.76142,0 -5,-2.23858 -5,-5c0,-0.59382 0.10352,-1.16346 0.29349,-1.69186l0.96309,-2.88928c0.02358,-2.10805 1.33333,-4 2,-6l1.27128,-2.65493c0,0 0.73462,-1.46923 2.20385,-2.30238c0.93163,-2.42855 1.73272,-4.92386 2.41758,-7.67423c0,0 0.24617,-0.9847 0.96035,-1.95585c0.25881,-1.41204 1.13564,-3.04667 3.67768,-3.68218c4.85071,-1.21268 6.06339,3.63803 6.06339,3.63803c0.45367,1.81469 0.8804,3.49507 1.26454,5.11313c2.78068,-0.76159 5.95348,-0.73095 8.42028,0.56401c1.83342,0.96246 0.99335,4.02093 1.44013,6.04285c1.21009,5.47628 1.4885,6.64202 1,12.98538c-0.08041,1.0441 -0.26631,2.07992 -0.45456,3.11486c1.17551,2.17956 -0.04897,4.62852 -0.04897,4.62852l-2.25648,-0.05087c0.16753,0.13458 0.27379,0.23462 0.30791,0.26757c1.08658,0.23536 2.17701,0.4587 3.21117,0.85781c1.08164,0.41743 1.87367,1.50886 3.00875,1.74501c1.83073,0.38088 2.77802,-0.15197 3.20394,-1.13971l-4.94742,-7.91588c0,-1.33333 0,-2.66667 0,-4c0,-4.33333 0,-8.66667 0,-13c0,0 0,-5 5,-5c3.74705,0 4.68602,2.80808 4.92132,4.21543c1.13918,0.00999 2.09296,-0.08933 2.14324,-1.01634c0.01338,-0.24671 -0.55282,-0.07627 -0.68396,-0.28567c-1.78012,-2.84244 -2.1087,-4.32225 -3.12402,-7.33228c0,0 -1.58114,-4.74342 3.16228,-6.32456c4.74342,-1.58114 6.32456,3.16228 6.32456,3.16228c1.06402,3.24037 5.21934,8.96674 4.19202,12.38205c-0.87454,2.9074 -2.91479,5.51267 -5.26958,7.42912c-1.06877,0.86982 -2.53335,1.07553 -3.97036,1.14137c0.08199,0.20404 0.14654,0.41451 0.19975,0.61044c0.53137,1.95672 0.60496,4.01127 1,6c1.03267,5.19867 2.20192,10.19952 -0.48687,15.37744c-2.55083,4.91224 -8.10636,5.85729 -13.15185,5.58513c-1.82302,-0.09834 -3.27641,-1.62858 -4.99125,-2.25499c-1.12015,-0.40918 -2.31863,-0.55914 -3.47795,-0.83871l-3.32286,-2.31518c0,0 -3.53553,-3.53553 0,-7.07107zM103.68558,258.54833l-0.77374,-0.18435l-0.0045,-0.0001c0.25813,0.06549 0.51783,0.12611 0.77825,0.18445z" fill="#ff6666" stroke-width="0.5"/><text transform="translate(19.63748,336.81529) scale(0.40221,0.40221)" font-size="40" xml:space="preserve" fill="#6356d6" fill-rule="nonzero" stroke="none" stroke-width="1" stroke-linecap="butt" stroke-linejoin="miter" stroke-miterlimit="10" stroke-dasharray="" stroke-dashoffset="0" font-family="Sans Serif" font-weight="normal" text-anchor="start" style="mix-blend-mode: normal"><tspan x="0" dy="0">by  </tspan></text><path d="M149.63748,179.7c0,-8.56041 6.93959,-15.5 15.5,-15.5c8.56041,0 15.5,6.93959 15.5,15.5c0,8.56041 -6.93959,15.5 -15.5,15.5c-8.56041,0 -15.5,-6.93959 -15.5,-15.5z" fill="#d6d6d6" stroke-width="0"/><path d="M187.63748,135.2c0,-3.31371 2.68629,-6 6,-6c3.31371,0 6,2.68629 6,6c0,3.31371 -2.68629,6 -6,6c-3.31371,0 -6,-2.68629 -6,-6z" fill="#d6d6d6" stroke-width="0"/><path d="M137.63748,100.7c0,-6.90356 5.59644,-12.5 12.5,-12.5c6.90356,0 12.5,5.59644 12.5,12.5c0,6.90356 -5.59644,12.5 -12.5,12.5c-6.90356,0 -12.5,-5.59644 -12.5,-12.5z" fill="#d6d6d6" stroke-width="0"/><path d="M15.63748,31.7c0,-9.1127 7.3873,-16.5 16.5,-16.5c9.1127,0 16.5,7.3873 16.5,16.5c0,9.1127 -7.3873,16.5 -16.5,16.5c-9.1127,0 -16.5,-7.3873 -16.5,-16.5z" fill="#d6d6d6" stroke-width="0"/><path d="M13.63748,106.2c0,-4.41828 3.58172,-8 8,-8c4.41828,0 8,3.58172 8,8c0,4.41828 -3.58172,8 -8,8c-4.41828,0 -8,-3.58172 -8,-8z" fill="#d6d6d6" stroke-width="0"/><path d="M41.63748,82.7c0,-10.76955 8.73045,-19.5 19.5,-19.5c10.76955,0 19.5,8.73045 19.5,19.5c0,10.76955 -8.73045,19.5 -19.5,19.5c-10.76955,0 -19.5,-8.73045 -19.5,-19.5z" fill="#d6d6d6" stroke-width="0"/><path d="M101.63748,63.7c0,-4.69442 3.80558,-8.5 8.5,-8.5c4.69442,0 8.5,3.80558 8.5,8.5c0,4.69442 -3.80558,8.5 -8.5,8.5c-4.69442,0 -8.5,-3.80558 -8.5,-8.5z" fill="#d6d6d6" stroke-width="0"/><path d="M420.63748,173.2c0,-10.49341 8.50659,-19 19,-19c10.49341,0 19,8.50659 19,19c0,10.49341 -8.50659,19 -19,19c-10.49341,0 -19,-8.50659 -19,-19z" fill="#d6d6d6" stroke-width="0"/><path d="M397.63748,209.2c0,-5.52285 4.47715,-10 10,-10c5.52285,0 10,4.47715 10,10c0,5.52285 -4.47715,10 -10,10c-5.52285,0 -10,-4.47715 -10,-10z" fill="#d6d6d6" stroke-width="0"/><g><path d="M260.62162,126.57862c0,-16.98848 15.05081,-30.76035 33.61691,-30.76035c18.56611,0 33.61691,13.77188 33.61691,30.76035c0,16.98848 -15.05081,30.76035 -33.61691,30.76035c-18.56611,0 -33.61691,-13.77188 -33.61691,-30.76035z" fill="#e3d100" stroke-width="0"/><path d="M294.69904,157.30931v-61.49104h75.52293v61.49104z" fill="#e3d100" stroke-width="0"/><path d="M336.14455,126.57862c0,-16.98848 15.05081,-30.76035 33.61691,-30.76035c18.56611,0 33.61691,13.77188 33.61691,30.76035c0,16.98848 -15.05081,30.76035 -33.61691,30.76035c-18.56611,0 -33.61691,-13.77188 -33.61691,-30.76035z" fill="#e3d100" stroke-width="0"/><text transform="translate(274.86838,135.23945) scale(0.71414,0.71414)" font-size="40" xml:space="preserve" fill="#000000" fill-rule="nonzero" stroke="none" stroke-width="1" stroke-linecap="butt" stroke-linejoin="miter" stroke-miterlimit="10" stroke-dasharray="" stroke-dashoffset="0" font-family="Sans Serif" font-weight="normal" text-anchor="start" style="mix-blend-mode: normal"><tspan x="0" dy="0"></tspan></text></g><g><path d="M225.62163,202c0,-16.98848 15.05081,-30.76035 33.61691,-30.76035c18.56611,0 33.61691,13.77188 33.61691,30.76035c0,16.98848 -15.05081,30.76035 -33.61691,30.76035c-18.56611,0 -33.61691,-13.77188 -33.61691,-30.76035z" fill="#e3d100" stroke-width="0"/><path d="M259.69904,232.73069v-61.49104h75.52293v61.49104z" fill="#e3d100" stroke-width="0"/><path d="M301.14455,202c0,-16.98848 15.05081,-30.76035 33.61691,-30.76035c18.56611,0 33.61691,13.77188 33.61691,30.76035c0,16.98848 -15.05081,30.76035 -33.61691,30.76035c-18.56611,0 -33.61691,-13.77188 -33.61691,-30.76035z" fill="#e3d100" stroke-width="0"/><text transform="translate(254.1516,210.56968) scale(0.71414,0.71414)" font-size="40" xml:space="preserve" fill="#000000" fill-rule="nonzero" stroke="none" stroke-width="1" stroke-linecap="butt" stroke-linejoin="miter" stroke-miterlimit="10" stroke-dasharray="" stroke-dashoffset="0" font-family="Sans Serif" font-weight="normal" text-anchor="start" style="mix-blend-mode: normal"><tspan x="0" dy="0"></tspan></text></g><g><path d="M190.62162,276.57862c0,-16.98848 15.05081,-30.76035 33.61691,-30.76035c18.56611,0 33.61691,13.77188 33.61691,30.76035c0,16.98848 -15.05081,30.76035 -33.61691,30.76035c-18.56611,0 -33.61691,-13.77188 -33.61691,-30.76035z" fill="#e3d100" stroke-width="0"/><path d="M224.69903,307.30931v-61.49104h75.52293v61.49104z" fill="#e3d100" stroke-width="0"/><path d="M266.14455,276.57862c0,-16.98848 15.05081,-30.76035 33.61691,-30.76035c18.56611,0 33.61691,13.77188 33.61691,30.76035c0,16.98848 -15.05081,30.76035 -33.61691,30.76035c-18.56611,0 -33.61691,-13.77188 -33.61691,-30.76035z" fill="#e3d100" stroke-width="0"/><text transform="translate(204.86838,285.23945) scale(0.71414,0.71414)" font-size="40" xml:space="preserve" fill="#000000" fill-rule="nonzero" stroke="none" stroke-width="1" stroke-linecap="butt" stroke-linejoin="miter" stroke-miterlimit="10" stroke-dasharray="" stroke-dashoffset="0" font-family="Sans Serif" font-weight="normal" text-anchor="start" style="mix-blend-mode: normal"><tspan x="0" dy="0"></tspan></text></g></g></g></svg>