<svg version="1.1" xmlns="http://www.w3.org/2000/svg" xmlns:xlink="http://www.w3.org/1999/xlink" width="388" height="55" viewBox="0,0,388,55"><g transform="translate(-38.5346,-281.77307)"><g data-paper-data="{&quot;isPaintingLayer&quot;:true}" fill-rule="nonzero" stroke-linejoin="miter" stroke-miterlimit="10" stroke-dasharray="" stroke-dashoffset="0" style="mix-blend-mode: normal"><path d="M64.03461,335.27307v-51h129v51z" fill="#cacaca" stroke="#000000" stroke-width="3" stroke-linecap="butt"/><path d="M40.03461,309.27307c0,-14.3594 11.6406,-26 26,-26c14.3594,0 26,11.6406 26,26c0,14.3594 -11.6406,26 -26,26c-14.3594,0 -26,-11.6406 -26,-26z" fill="#cacaca" stroke="#000000" stroke-width="3" stroke-linecap="butt"/><path d="M80.21643,310.06095h-14.18182v-13.39394" fill="none" stroke="#000000" stroke-width="3" stroke-linecap="round"/><path d="M296.03461,335.27307v-51h129v51z" fill="#cacaca" stroke="#000000" stroke-width="3" stroke-linecap="butt"/><path d="M272.03461,309.27307c0,-14.3594 11.6406,-26 26,-26c14.3594,0 26,11.6406 26,26c0,14.3594 -11.6406,26 -26,26c-14.3594,0 -26,-11.6406 -26,-26z" fill="#cacaca" stroke="#000000" stroke-width="3" stroke-linecap="butt"/><g stroke="none" stroke-linecap="butt"><path d="M282,313.24131c0,-8.99081 7.28849,-16.2793 16.2793,-16.2793c8.99081,0 16.2793,7.28849 16.2793,16.2793c0,8.99081 -7.28849,16.2793 -16.2793,16.2793c-8.99081,0 -16.2793,-7.28849 -16.2793,-16.2793z" fill="#000000" stroke-width="0"/><path d="M295.98384,309.55973c-0.93411,0.31137 -1.24548,-0.62274 -1.24548,-0.62274l-0.13128,-0.39385c-0.13446,-0.41324 -0.33853,-0.78592 -0.52109,-1.17978c-0.13494,-0.11978 -0.35119,-0.45812 -0.47406,-0.5066c-0.33608,-0.13262 -0.83575,-0.19674 -1.19514,-0.14748c-0.24623,0.03376 -0.44619,0.21932 -0.67335,0.32015c-0.68346,0.30339 -1.31456,0.68903 -1.98626,0.98963c-0.23159,0.10364 -0.52843,0.90424 -0.63787,1.051c-0.23025,0.30877 -0.54382,0.56544 -0.7058,0.91489c0,0 -0.44034,0.88068 -1.32103,0.44034c-0.88068,-0.44034 -0.44034,-1.32103 -0.44034,-1.32103c0.11483,-0.22018 0.19762,-0.46029 0.34448,-0.66052c0.14641,-0.19962 0.376,-0.32755 0.52514,-0.52514c0.104,-0.13779 0.13119,-0.32135 0.22376,-0.46707c0.20956,-0.32986 0.62594,-0.87833 0.97635,-1.10764c0.14253,-0.09327 0.32647,-0.10222 0.47891,-0.17822c0.59094,-0.29463 1.12356,-0.66023 1.73594,-0.9327c0.48614,-0.2163 0.62452,-0.3719 1.16463,-0.46755c0.7482,-0.13251 1.8071,0.01925 2.48084,0.37766c0.37554,0.19978 0.80686,0.75981 1.10136,1.06881c0.29481,0.56529 0.58701,1.10456 0.79175,1.70849l0.13128,0.39385c0,0 0.31137,0.93411 -0.62274,1.24548z" fill="#b9b9b9" stroke-width="0.5"/><path d="M308.67606,309.18729c0.11233,0.14313 0.19053,0.34241 0.19053,0.6199c0,0.98464 -0.98464,0.98464 -0.98464,0.98464l-1.11592,-0.98464c0.02791,-0.51827 -0.26966,-1.3115 -0.56453,-1.73888c-0.48317,-0.46658 -1.04763,-0.75631 -1.64041,-1.05258c-0.17813,-0.08903 -0.3141,-0.29371 -0.51283,-0.30644c-0.17281,-0.01107 -0.3491,-0.01519 -0.51575,-0.06224c-0.02411,-0.00681 0.06953,0.02751 0.05687,0.04913c-0.04624,0.0789 -0.14048,0.11896 -0.19735,0.19057c-0.1818,0.22893 -0.31293,0.49424 -0.4828,0.73216c-0.3718,0.52074 -0.83256,0.97753 -1.20926,1.48139c-0.32217,0.43094 -0.59113,0.90102 -0.92622,1.32199c0,0 -0.6151,0.76887 -1.38397,0.15377c-0.76887,-0.6151 -0.15378,-1.38397 -0.15378,-1.38397c0.33246,-0.41315 0.59304,-0.87988 0.91177,-1.30371c0.36209,-0.48148 0.79822,-0.90921 1.15386,-1.40687c0.38119,-0.5334 0.81216,-1.40689 1.47727,-1.65383c0.62224,-0.23103 1.65809,-0.11322 2.25354,0.15646c0.14373,0.0651 0.25274,0.19198 0.39385,0.26257c0.86148,0.43091 1.61477,0.87563 2.29813,1.57311c0.45218,0.68656 0.81375,1.52819 0.95164,2.36747z" fill="#b9b9b9" stroke-width="0.5"/><path d="M289.29581,315.15789c0.00743,-0.08623 0.0265,-0.17923 0.05989,-0.27939c0.31137,-0.93411 1.24548,-0.62274 1.24548,-0.62274c0.20005,0.07594 0.41462,0.12119 0.60014,0.22781c0.12718,0.07309 0.19702,0.22243 0.32064,0.30137c0.41891,0.26751 1.27112,0.51904 1.65584,0.68393c0.47247,0.2025 0.91964,0.48215 1.41919,0.60338c1.5062,0.36552 2.99752,0.15534 4.53352,0.23455c0.45054,0.02323 0.89589,0.12604 1.34699,0.13168c0.48881,0.00611 0.95511,-0.27447 1.38242,-0.45159c0.1469,-0.06089 0.30694,-0.12365 0.40898,-0.24563c0.69446,-0.4597 1.48873,-0.77385 2.29139,-0.99595c0.12653,-0.03501 0.30756,0.04198 0.41391,-0.00943l0.24225,-0.24225c0.17818,-0.17818 0.42434,-0.28839 0.69624,-0.28839c0.5438,0 0.98463,0.44083 0.98463,0.98463c0,0.2719 -0.11021,0.51806 -0.28839,0.69624l-0.35148,0.35147c-0.2261,0.29419 -0.43191,0.59245 -0.67471,1.02192c-0.64644,1.14339 -1.17498,2.38931 -1.89083,3.49491c-0.27613,0.42646 -0.79375,0.81323 -1.15281,1.17079c-1.41293,1.40703 -3.12517,2.15268 -5.10768,1.4088c-0.38282,-0.14364 -0.71414,-0.39846 -1.07159,-0.59699c-0.73362,-0.40745 -1.48134,-0.80509 -2.23184,-1.18156c-0.24895,-0.1721 -0.55272,-0.25038 -0.81114,-0.40789c-0.1426,-0.08691 -0.23834,-0.2349 -0.36917,-0.33869c-0.24721,-0.19614 -0.54442,-0.32415 -0.78771,-0.52514c-0.26564,-0.21946 -0.44926,-0.52286 -0.66235,-0.79364c-0.15309,-0.19454 -0.37265,-0.33013 -0.52514,-0.52514c-0.06548,-0.08374 -0.06975,-0.21352 -0.15274,-0.27994c-0.1528,-0.12229 -0.37881,-0.13262 -0.52514,-0.26257c-0.26509,-0.23542 -0.42233,-0.61636 -0.63496,-0.90162c-0.13046,-0.17502 -0.32605,-0.30884 -0.41079,-0.51001c-0.07972,-0.18926 -0.04149,-0.40863 -0.06224,-0.61294l-0.09347,-0.24021c0,0 -0.20041,-0.60122 0.20268,-0.99976zM292.15172,317.23488c0.14072,0.13615 0.21921,0.329 0.34367,0.48156c0.15649,0.19181 0.36927,0.33282 0.52514,0.52514c0.12934,0.15958 0.21318,0.38844 0.38793,0.51921c0.25266,0.18907 0.54215,0.32693 0.78771,0.52514c0.06305,0.05089 0.08596,0.14565 0.15597,0.18645c0.2458,0.14322 0.52561,0.225 0.76427,0.37982c0.75126,0.37434 1.49846,0.77401 2.23184,1.18156c0.38237,0.21249 0.36618,0.30337 0.7664,0.45329c0.84959,0.31826 1.5363,0.19874 2.2598,-0.28748c0.44524,-0.29921 0.78912,-0.68381 1.16602,-1.06071c0.18166,-0.18166 0.42319,-0.31474 0.55389,-0.53591c0.34011,-0.5755 0.66806,-1.15819 0.99026,-1.7439c0.05714,-0.10388 0.12228,-0.24053 0.1947,-0.39836c-0.72513,0.54241 -1.83679,0.93587 -2.69679,0.94424c-0.51558,0.00502 -1.02627,-0.10592 -1.54127,-0.13089c-1.15348,-0.05594 -2.33814,0.09995 -3.48909,-0.00637c-0.76046,-0.07024 -1.65592,-0.30545 -2.35705,-0.59271c-0.34929,-0.14311 -0.69686,-0.29039 -1.0434,-0.44009z" fill="#b9b9b9" stroke-width="0.5"/><path d="M312.67384,289.32678c0,0.87902 -0.78474,0.97331 -0.95308,0.98342c-0.65735,0.21851 -1.31228,0.43914 -1.97439,0.64493c-0.50638,-0.02121 -0.79855,0.29481 -1.31285,0.39385c-0.12304,0.0237 -0.25501,-0.03608 -0.37589,-0.00309c-0.12111,0.03305 -1.33577,0.53665 -1.54371,0.61215c-0.08544,0.03102 -0.86549,0.25264 -1.07579,0.39936c-1.30984,0.91381 -2.52005,2.02559 -3.46254,3.33475c-0.75357,1.04675 -1.3472,2.20162 -2.08447,3.25992c-0.38526,0.553 -1.27895,1.26867 -1.42542,2.03529c0,0 -0.23881,0.95524 -1.19405,0.71643c-0.95524,-0.23881 -0.71643,-1.19405 -0.71643,-1.19405c0.06582,-0.2365 0.08832,-0.48961 0.19746,-0.7095c0.37078,-0.74711 1.05139,-1.29696 1.52795,-1.98146c0.74739,-1.07349 1.35109,-2.2437 2.11665,-3.30432c0.7895,-1.09379 1.75978,-2.11505 2.81629,-2.94995c0.23905,-0.18891 0.51826,-0.322 0.76202,-0.50479c0.11523,-0.08641 0.19035,-0.22135 0.31109,-0.29989c0.61998,-0.40329 0.85392,-0.39746 1.5499,-0.65092c0.72186,-0.26288 1.03558,-0.47332 1.86969,-0.7007c0.13244,-0.0361 0.27557,0.01367 0.41182,-0.00309c0.30822,-0.0379 0.55188,-0.295 0.85049,-0.38023c0.14827,-0.04231 0.30824,-0.00908 0.46235,-0.01363c0.60305,-0.23771 1.20404,-0.41345 1.81562,-0.61861l0.44266,-0.05053c0,0 0.98463,0 0.98463,0.98464z" fill="#b9b9b9" stroke-width="0.5"/></g><text transform="translate(332.50961,321.69495) scale(0.91667,0.91667)" font-size="40" xml:space="preserve" fill="#000000" fill-rule="nonzero" stroke="none" stroke-width="1" stroke-linecap="butt" stroke-linejoin="miter" stroke-miterlimit="10" stroke-dasharray="" stroke-dashoffset="0" font-family="Sans Serif" font-weight="normal" text-anchor="start" style="mix-blend-mode: normal"><tspan x="0" dy="0">x</tspan></text></g></g></svg>