<svg version="1.1" xmlns="http://www.w3.org/2000/svg" xmlns:xlink="http://www.w3.org/1999/xlink" width="142.75675" height="61.5207" viewBox="0,0,142.75675,61.5207"><g transform="translate(-168.62162,-148.81827)"><g data-paper-data="{&quot;isPaintingLayer&quot;:true}" fill-rule="nonzero" stroke="none" stroke-linecap="butt" stroke-linejoin="miter" stroke-miterlimit="10" stroke-dasharray="" stroke-dashoffset="0" style="mix-blend-mode: normal"><path d="M168.62162,179.57862c0,-16.98848 15.05081,-30.76035 33.61691,-30.76035c18.56611,0 33.61691,13.77188 33.61691,30.76035c0,16.98848 -15.05081,30.76035 -33.61691,30.76035c-18.56611,0 -33.61691,-13.77188 -33.61691,-30.76035z" fill="#e3d100" stroke-width="0"/><path d="M202.69904,210.30931v-61.49104h75.52293v61.49104z" fill="#e3d100" stroke-width="0"/><path d="M244.14455,179.57862c0,-16.98848 15.05081,-30.76035 33.61691,-30.76035c18.56611,0 33.61691,13.77188 33.61691,30.76035c0,16.98848 -15.05081,30.76035 -33.61691,30.76035c-18.56611,0 -33.61691,-13.77188 -33.61691,-30.76035z" fill="#e3d100" stroke-width="0"/><text transform="translate(182.86838,188.23945) scale(0.71414,0.71414)" font-size="40" xml:space="preserve" fill="#000000" fill-rule="nonzero" stroke="none" stroke-width="1" stroke-linecap="butt" stroke-linejoin="miter" stroke-miterlimit="10" stroke-dasharray="" stroke-dashoffset="0" font-family="Sans Serif" font-weight="normal" text-anchor="start" style="mix-blend-mode: normal"><tspan x="0" dy="0">说明设置</tspan></text></g></g></svg>