<svg version="1.1" xmlns="http://www.w3.org/2000/svg" xmlns:xlink="http://www.w3.org/1999/xlink" width="44.8354" height="56.70553" viewBox="0,0,44.8354,56.70553"><g transform="translate(-217.5823,-151.64724)"><g data-paper-data="{&quot;isPaintingLayer&quot;:true}" fill-rule="nonzero" stroke="none" stroke-linecap="butt" stroke-linejoin="miter" stroke-miterlimit="10" stroke-dasharray="" stroke-dashoffset="0" style="mix-blend-mode: normal"><path d="M217.5823,185.93506c0,-12.38095 10.03674,-22.4177 22.4177,-22.4177c12.38095,0 22.4177,10.03674 22.4177,22.4177c0,12.38095 -10.03674,22.4177 -22.4177,22.4177c-12.38095,0 -22.4177,-10.03674 -22.4177,-22.4177z" fill="#000000" stroke-width="0"/><path d="M236.83901,180.86528c-1.28632,0.42878 -1.7151,-0.85755 -1.7151,-0.85755l-0.18079,-0.54236c-0.18517,-0.56907 -0.46617,-1.08225 -0.71758,-1.62463c-0.18583,-0.16495 -0.48361,-0.63086 -0.65281,-0.69763c-0.4628,-0.18262 -1.15089,-0.27094 -1.64579,-0.20309c-0.33907,0.04649 -0.61444,0.30202 -0.92726,0.44088c-0.94117,0.41779 -1.81024,0.94884 -2.73522,1.36279c-0.31891,0.14272 -0.72769,1.24519 -0.87838,1.44729c-0.31708,0.42519 -0.74888,0.77865 -0.97194,1.25987c0,0 -0.60638,1.21276 -1.81914,0.60638c-1.21276,-0.60638 -0.60638,-1.81914 -0.60638,-1.81914c0.15812,-0.3032 0.27213,-0.63385 0.47437,-0.90959c0.20161,-0.27489 0.51778,-0.45106 0.72315,-0.72315c0.14321,-0.18975 0.18066,-0.44253 0.30814,-0.64318c0.28859,-0.45424 0.86197,-1.20952 1.3445,-1.52529c0.19627,-0.12844 0.44957,-0.14076 0.65948,-0.24542c0.81377,-0.40572 1.54721,-0.90918 2.39051,-1.2844c0.66944,-0.29786 0.86001,-0.51213 1.60378,-0.64385c1.03032,-0.18247 2.4885,0.02651 3.41628,0.52006c0.51715,0.27511 1.11109,1.04631 1.51665,1.47182c0.40597,0.77844 0.80835,1.52106 1.0903,2.3527l0.18079,0.54236c0,0 0.42878,1.28632 -0.85755,1.7151z" fill="#b9b9b9" stroke-width="0.5"/><path d="M254.31704,180.35239c0.15468,0.19709 0.26237,0.47153 0.26237,0.85365c0,1.35591 -1.35591,1.35591 -1.35591,1.35591l-1.5367,-1.35591c0.03843,-0.7137 -0.37134,-1.80603 -0.7774,-2.39455c-0.66536,-0.64251 -1.44266,-1.0415 -2.25896,-1.44948c-0.24529,-0.1226 -0.43253,-0.40447 -0.7062,-0.422c-0.23797,-0.01525 -0.48074,-0.02091 -0.71023,-0.08571c-0.0332,-0.00937 0.09576,0.03789 0.07831,0.06765c-0.06368,0.10865 -0.19345,0.16381 -0.27177,0.26244c-0.25035,0.31525 -0.43093,0.6806 -0.66485,1.00823c-0.51199,0.7171 -1.1465,1.34612 -1.66523,2.03998c-0.44366,0.59343 -0.81402,1.24076 -1.27547,1.82047c0,0 -0.84703,1.05879 -1.90581,0.21176c-1.05879,-0.84703 -0.21176,-1.90581 -0.21176,-1.90581c0.45783,-0.56893 0.81665,-1.21165 1.25557,-1.7953c0.49863,-0.66304 1.0992,-1.25205 1.58894,-1.93736c0.52492,-0.73453 1.1184,-1.93739 2.0343,-2.27744c0.85687,-0.31814 2.2833,-0.15593 3.10327,0.21545c0.19792,0.08965 0.34804,0.26437 0.54236,0.36158c1.18631,0.59339 2.22365,1.2058 3.16468,2.16628c0.62268,0.94545 1.12059,2.10442 1.31048,3.26017z" fill="#b9b9b9" stroke-width="0.5"/><path d="M227.62912,188.57431c0.01024,-0.11874 0.03649,-0.24681 0.08247,-0.38475c0.42878,-1.28632 1.7151,-0.85755 1.7151,-0.85755c0.27547,0.10457 0.57096,0.16689 0.82643,0.31371c0.17513,0.10065 0.27131,0.3063 0.44154,0.41501c0.57687,0.36838 1.75042,0.71475 2.2802,0.94182c0.65063,0.27886 1.26642,0.66395 1.95432,0.83089c2.07413,0.50334 4.12779,0.21392 6.24297,0.32299c0.62043,0.032 1.2337,0.17356 1.8549,0.18133c0.67312,0.00841 1.31525,-0.37796 1.90368,-0.62187c0.2023,-0.08385 0.42268,-0.17028 0.56319,-0.33825c0.95631,-0.63305 2.05008,-1.06565 3.15541,-1.37149c0.17425,-0.04821 0.42353,0.05781 0.56998,-0.01299l0.33359,-0.33359c0.24537,-0.24537 0.58435,-0.39713 0.95878,-0.39713c0.74885,0 1.35591,0.60706 1.35591,1.35591c0,0.37442 -0.15177,0.7134 -0.39713,0.95878l-0.484,0.484c-0.31136,0.40512 -0.59476,0.81584 -0.92912,1.40725c-0.89019,1.57452 -1.61803,3.29025 -2.6038,4.81273c-0.38024,0.58727 -1.09305,1.11987 -1.5875,1.61226c-1.9457,1.93758 -4.30356,2.96438 -7.03363,1.94c-0.52718,-0.19781 -0.98341,-0.54871 -1.47566,-0.8221c-1.01025,-0.56109 -2.03991,-1.10867 -3.0734,-1.62709c-0.34282,-0.23699 -0.76114,-0.34479 -1.117,-0.5617c-0.19637,-0.11968 -0.32821,-0.32346 -0.50836,-0.4664c-0.34042,-0.2701 -0.74971,-0.44638 -1.08473,-0.72315c-0.36581,-0.30222 -0.61866,-0.72 -0.9121,-1.09289c-0.21081,-0.26789 -0.51316,-0.45461 -0.72315,-0.72315c-0.09017,-0.11531 -0.09605,-0.29403 -0.21034,-0.3855c-0.21042,-0.16839 -0.52164,-0.18262 -0.72315,-0.36158c-0.36505,-0.32419 -0.58158,-0.84878 -0.87439,-1.24159c-0.17965,-0.24101 -0.44899,-0.42529 -0.56569,-0.70232c-0.10978,-0.26062 -0.05714,-0.5627 -0.08571,-0.84406l-0.12871,-0.33078c0,0 -0.27598,-0.82792 0.27911,-1.37674zM231.5619,191.43448c0.19378,0.18748 0.30187,0.45306 0.47326,0.66315c0.2155,0.26414 0.50851,0.45831 0.72315,0.72315c0.17811,0.21976 0.29355,0.53491 0.5342,0.71498c0.34793,0.26036 0.74658,0.45021 1.08473,0.72315c0.08682,0.07008 0.11838,0.20058 0.21479,0.25675c0.33849,0.19721 0.72379,0.30984 1.05245,0.52303c1.03453,0.51549 2.06348,1.06587 3.0734,1.62709c0.52656,0.29261 0.50426,0.41775 1.05538,0.6242c1.16995,0.43826 2.11558,0.27368 3.1119,-0.39588c0.61311,-0.41204 1.08668,-0.94166 1.60569,-1.46066c0.25015,-0.25015 0.58275,-0.43342 0.76274,-0.73799c0.46835,-0.7925 0.91997,-1.59491 1.36366,-2.40146c0.07869,-0.14304 0.16839,-0.33123 0.26811,-0.54857c-0.99856,0.74694 -2.52938,1.28876 -3.71366,1.30028c-0.70999,0.00691 -1.41325,-0.14586 -2.12244,-0.18025c-1.58842,-0.07704 -3.21976,0.13764 -4.80471,-0.00877c-1.0472,-0.09673 -2.28032,-0.42063 -3.24582,-0.81621c-0.48099,-0.19707 -0.95962,-0.39989 -1.43683,-0.60602z" fill="#b9b9b9" stroke-width="0.5"/><path d="M259.82226,153.00313c0,1.21047 -1.08064,1.34031 -1.31245,1.35424c-0.90523,0.30089 -1.8071,0.60473 -2.71887,0.8881c-0.69732,-0.02921 -1.09965,0.40597 -1.80788,0.54236c-0.16944,0.03263 -0.35117,-0.04968 -0.51763,-0.00425c-0.16678,0.04552 -1.83945,0.73899 -2.12579,0.84297c-0.11765,0.04272 -1.19184,0.3479 -1.48144,0.54995c-1.80373,1.25837 -3.47028,2.78937 -4.76815,4.59218c-1.03772,1.44145 -1.85518,3.03178 -2.87045,4.48913c-0.53052,0.76153 -1.7612,1.74705 -1.96291,2.80273c0,0 -0.32886,1.31542 -1.64428,0.98657c-1.31542,-0.32886 -0.98657,-1.64428 -0.98657,-1.64428c0.09064,-0.32568 0.12163,-0.67422 0.27191,-0.97703c0.51059,-1.02881 1.44783,-1.786 2.10409,-2.72861c1.02921,-1.47827 1.86054,-3.08973 2.91477,-4.55027c1.08719,-1.50622 2.42334,-2.91257 3.87822,-4.06227c0.32919,-0.26014 0.71368,-0.44342 1.04936,-0.69512c0.15869,-0.11899 0.26213,-0.30482 0.42839,-0.41297c0.85375,-0.55536 1.17591,-0.54733 2.13431,-0.89636c0.99405,-0.362 1.42607,-0.6518 2.57469,-0.96491c0.18238,-0.04972 0.37948,0.01883 0.5671,-0.00425c0.42444,-0.05219 0.75997,-0.40624 1.17118,-0.5236c0.20417,-0.05827 0.42446,-0.01251 0.6367,-0.01876c0.83044,-0.32734 1.65805,-0.56934 2.50023,-0.85187l0.60957,-0.06958c0,0 1.35591,0 1.35591,1.35591z" fill="#b9b9b9" stroke-width="0.5"/></g></g></svg>