<svg version="1.1" xmlns="http://www.w3.org/2000/svg" xmlns:xlink="http://www.w3.org/1999/xlink" width="34.21768" height="21.18149" viewBox="0,0,34.21768,21.18149"><g transform="translate(-222.89116,-169.40925)"><g data-paper-data="{&quot;isPaintingLayer&quot;:true}" fill="#ffffff" fill-rule="nonzero" stroke="none" stroke-width="0" stroke-linecap="butt" stroke-linejoin="miter" stroke-miterlimit="10" stroke-dasharray="" stroke-dashoffset="0" style="mix-blend-mode: normal"><path d="M222.89116,179.85688c0,-5.77007 3.60756,-10.44763 8.05771,-10.44763c4.45016,0 8.05771,4.67757 8.05771,10.44763c0,5.77007 -3.60756,10.44763 -8.05771,10.44763c-4.45016,0 -8.05771,-4.67757 -8.05771,-10.44763z"/><path d="M231.05925,190.59075v-21.18149h18.10226v21.18149z"/><path d="M240.99342,179.85688c0,-5.77007 3.60756,-10.44763 8.05771,-10.44763c4.45016,0 8.05771,4.67757 8.05771,10.44763c0,5.77007 -3.60756,10.44763 -8.05771,10.44763c-4.45016,0 -8.05771,-4.67757 -8.05771,-10.44763z"/></g></g></svg>