<svg version="1.1" xmlns="http://www.w3.org/2000/svg" xmlns:xlink="http://www.w3.org/1999/xlink" width="69.92106" height="65.00001" viewBox="0,0,69.92106,65.00001"><g transform="translate(-201.63748,-147.49999)"><g data-paper-data="{&quot;isPaintingLayer&quot;:true}" fill-rule="nonzero" stroke="none" stroke-width="0" stroke-linecap="butt" stroke-linejoin="miter" stroke-miterlimit="10" stroke-dasharray="" stroke-dashoffset="0" style="mix-blend-mode: normal"><path d="M239.05854,147.5c17.94926,0 32.5,14.55074 32.5,32.5c0,17.94926 -14.55074,32.5 -32.5,32.5c-10.72217,0 -20.23161,-5.19227 -26.15111,-13.19959c1.38849,-0.62846 2.27274,-1.51271 2.27274,-1.51271c-0.5077,0.06844 -1.02539,0.28199 -1.40229,0.62896l6.07169,-6.67886c0.53315,0.86469 1.7642,0.97267 2.75343,1.37109c0.76948,0.76414 1.29894,1.2914 2.02046,1.81928c0.34502,0.43069 0.70531,0.84202 1.16769,1.12311c0.42892,0.26075 0.88952,0.45729 1.36248,0.62881l0.79488,2.46178c1.18359,0.94063 2.13065,2.30333 3.55078,2.8219c2.93187,1.0706 5.89877,0.55579 8.72182,-0.27959c0.07733,0.01137 0.15487,0.02155 0.23261,0.03048c1.89519,0.21765 3.87168,0.09267 5.7069,-0.42797c1.11497,-0.31631 1.77676,-1.83812 2.93546,-1.86331l1.88313,-0.62771c2.46161,-0.75705 4.32506,-2.87976 4.70613,-5.48389c4.74082,-3.54902 4.81128,-5.61125 4.81128,-11.14511c0,-4.01726 -0.19093,-8.10771 -2.36539,-11.68464c-1.387,-2.28158 -5.38419,-6.16342 -7.61664,-7.61664c-0.59814,-0.38936 -1.41398,-0.31882 -2.03125,-0.67708c-0.85606,-0.49686 -1.40015,-1.49139 -2.32272,-1.84999c-1.10716,-0.43035 -2.37263,-0.19677 -3.53777,-0.42797c-2.04948,-0.40668 -4.17665,-1.05493 -6.23163,-0.67708c-1.5678,0.28827 -3.08295,0.88317 -4.50632,1.60087c-0.57,0.28741 -0.83003,0.98976 -1.35417,1.35417c-1.172,0.81483 -2.89251,0.53647 -4.0625,1.35417c-2.19207,1.53203 -3.39274,3.40317 -4.37837,5.47639l-0.23511,0.23511c-0.94765,0.94765 -1.61569,2.17489 -1.86978,3.54738c-0.12794,0.06118 -0.2561,0.12709 -0.38375,0.1981l-5.31031,-5.84134c0.01739,-0.00637 0.03311,-0.02202 0.04679,-0.04895c0.14206,-0.27965 -0.11892,-0.69325 -0.38561,-0.85835c-1.10026,-0.68109 -2.41095,-0.99722 -3.51064,-1.66901c5.49151,-10.17114 16.24727,-17.0818 28.61708,-17.0818z" fill="#e30000"/><path d="" fill="#e30000"/><path d="M201.63748,160.2c0.03283,0.03022 0.06716,0.06878 0.10245,0.1127z" fill="#e30000"/><path d="M214.08665,199.14968c0.19896,0.0654 0.39492,0.13464 0.58486,0.21114c1.13647,1.12857 1.91844,1.90729 2.98407,2.68693c0.50958,0.6361 1.04169,1.2436 1.72459,1.65875c0.63348,0.3851 1.31376,0.67538 2.01227,0.92871l0.68793,2.13056c-3.09089,-2.05107 -5.79885,-4.63315 -7.99372,-7.61609z" fill="#e3e3e3"/><path d="M265.76759,197.85429c-0.79291,1.19887 -1.66561,2.34034 -2.61055,3.41684c0.16751,-0.51961 0.29365,-1.05779 0.37455,-1.61066c0.8409,-0.6295 1.58231,-1.22734 2.236,-1.80618z" fill="#e3e3e3"/><path d="M253.49014,208.71819c-0.37215,0.18519 -0.74848,0.36324 -1.12881,0.53396c0.35013,-0.26015 0.71891,-0.45946 1.12881,-0.53396z" fill="#e3e3e3"/><path d="" fill="#e3e3e3"/><path d="M239.47506,149c17.39697,0 31.5,14.10303 31.5,31.5c0,1.58717 -0.11739,3.14693 -0.34395,4.67106c0.00562,-0.6232 0.00637,-1.27874 0.00637,-1.97107c0,-5.93318 -0.28198,-11.97446 -3.49349,-17.25731c-2.04849,-3.36971 -7.95204,-9.1029 -11.2492,-11.2492c-0.88341,-0.57506 -2.08834,-0.47087 -3,-1c-1.26434,-0.73383 -2.06792,-2.20266 -3.43048,-2.73229c-1.63519,-0.63559 -3.50419,-0.29062 -5.22501,-0.63208c-3.02692,-0.60063 -6.16858,-1.55805 -9.20364,-1c-2.31551,0.42575 -4.55328,1.30437 -6.65549,2.36437c-0.84184,0.42448 -1.2259,1.46181 -2,2c-1.73095,1.20344 -4.27201,0.79232 -6,2c-3.23752,2.26268 -5.01082,5.02622 -6.46652,8.0882l-0.34724,0.34724c-1.3996,1.3996 -2.38625,3.21215 -2.76152,5.2392c-0.18896,0.09036 -0.37825,0.1877 -0.56677,0.29257l-0.24737,-0.27211c4.49217,-11.91409 15.99858,-20.38859 29.48431,-20.38859z" fill="#e3e3e3"/></g></g></svg>