<svg version="1.1" xmlns="http://www.w3.org/2000/svg" xmlns:xlink="http://www.w3.org/1999/xlink" width="360" height="360" viewBox="0,0,360,360"><g transform="translate(-60,0)"><g data-paper-data="{&quot;isPaintingLayer&quot;:true}" fill-rule="nonzero" stroke-linecap="butt" stroke-linejoin="miter" stroke-miterlimit="10" stroke-dasharray="" stroke-dashoffset="0" style="mix-blend-mode: normal"><path d="M70,350v-340h340v340z" fill="#ffffff" stroke="#000000" stroke-width="20"/><path d="M116,215c0,-68.48331 55.51669,-124 124,-124c68.48331,0 124,55.51669 124,124c0,68.48331 -55.51669,124 -124,124c-68.48331,0 -124,-55.51669 -124,-124z" fill="#000000" stroke="none" stroke-width="0"/><path d="M222.51543,186.95727c-7.11512,2.37171 -9.48683,-4.74342 -9.48683,-4.74342l-1,-3c-1.02421,-3.14771 -2.57858,-5.98632 -3.96919,-8.98638c-1.02787,-0.91239 -2.67501,-3.4895 -3.61092,-3.85883c-2.5599,-1.01017 -6.36597,-1.49864 -9.10339,-1.12334c-1.87552,0.25713 -3.3987,1.67059 -5.12895,2.43864c-5.20596,2.31093 -10.01304,5.24836 -15.12944,7.53808c-1.764,0.78944 -4.02506,6.88758 -4.85867,8.00545c-1.75384,2.3519 -4.1423,4.30699 -5.37611,6.96877c0,0 -3.3541,6.7082 -10.06231,3.3541c-6.7082,-3.3541 -3.3541,-10.06231 -3.3541,-10.06231c0.87463,-1.67708 1.50525,-3.50604 2.62389,-5.03123c1.11519,-1.52049 2.86402,-2.49497 4,-4c0.79219,-1.04955 0.99929,-2.44775 1.70444,-3.55766c1.59626,-2.51255 4.76782,-6.69028 7.4369,-8.4369c1.08563,-0.71042 2.48674,-0.77859 3.64785,-1.35748c4.50124,-2.24418 8.5582,-5.02903 13.22272,-7.10444c3.70292,-1.64756 4.75698,-2.83275 8.87105,-3.56136c5.69909,-1.00931 13.76477,0.14663 18.89661,2.87666c2.86055,1.52175 6.14586,5.78749 8.38908,8.14117c2.24557,4.30581 4.47127,8.41346 6.03081,13.01362l1,3c0,0 2.37171,7.11512 -4.74342,9.48683z" fill="#b9b9b9" stroke="none" stroke-width="0.5"/><path d="M319.19246,184.12034c0.85559,1.09018 1.45126,2.60816 1.45126,4.72181c0,7.5 -7.5,7.5 -7.5,7.5l-8.5,-7.5c0.21256,-3.94771 -2.05401,-9.98977 -4.30007,-13.24508c-3.68032,-3.55395 -7.97985,-5.76087 -12.49507,-8.01755c-1.35681,-0.67813 -2.3925,-2.23723 -3.90623,-2.33421c-1.3163,-0.08433 -2.65913,-0.11568 -3.92851,-0.47406c-0.18363,-0.05184 0.52965,0.20958 0.43318,0.3742c-0.35221,0.60097 -1.07005,0.90613 -1.50323,1.45162c-1.38479,1.74378 -2.38362,3.76463 -3.67752,5.57688c-2.83198,3.96651 -6.34168,7.44585 -9.211,11.2838c-2.45403,3.28245 -4.50263,6.86306 -7.05502,10.06962c0,0 -4.68521,5.85652 -10.54173,1.1713c-5.85652,-4.68521 -1.1713,-10.54173 -1.1713,-10.54173c2.53237,-3.14694 4.51719,-6.70207 6.94498,-9.93038c2.75807,-3.66749 6.08006,-6.92552 8.789,-10.7162c2.90351,-4.06295 6.18624,-10.71633 11.25242,-12.5973c4.73961,-1.75973 12.62974,-0.86247 17.16526,1.19173c1.0948,0.49585 1.92511,1.46235 3,2c6.56193,3.28223 12.29979,6.6697 17.50493,11.98245c3.4443,5.22957 6.19841,11.64028 7.24868,18.03311z" fill="#b9b9b9" stroke="none" stroke-width="0.5"/><path d="M171.57242,229.59861c0.05662,-0.6568 0.20186,-1.36521 0.45618,-2.12817c2.37171,-7.11512 9.48683,-4.74342 9.48683,-4.74342c1.52376,0.57841 3.15817,0.92312 4.57128,1.73524c0.96869,0.55672 1.50069,1.69425 2.44234,2.29556c3.19087,2.03762 9.68215,3.95355 12.61256,5.20953c3.59885,1.54248 7.00497,3.67255 10.81,4.59594c11.47277,2.78418 22.83219,1.18324 34.53197,1.78655c3.43177,0.17696 6.82401,0.96006 10.26007,1.00297c3.72327,0.0465 7.27509,-2.09061 10.52994,-3.43977c1.11897,-0.46382 2.33799,-0.9419 3.11521,-1.87097c5.28971,-3.5016 11.3397,-5.89447 17.45364,-7.58618c0.96381,-0.26668 2.34266,0.31977 3.15276,-0.07184l1.84521,-1.84521c1.35723,-1.35723 3.23223,-2.1967 5.3033,-2.1967c4.14214,0 7.5,3.35786 7.5,7.5c0,2.07107 -0.83947,3.94607 -2.1967,5.3033l-2.6772,2.6772c-1.72223,2.24087 -3.28982,4.51271 -5.13928,7.78395c-4.92393,8.70925 -8.94988,18.19949 -14.40251,26.62088c-2.10326,3.24841 -6.04603,6.19441 -8.78102,8.91797c-10.76232,10.71738 -23.8045,16.39701 -38.9054,10.73084c-2.916,-1.09415 -5.43959,-3.0351 -8.16235,-4.54731c-5.58804,-3.10359 -11.28345,-6.13241 -17,-9c-1.89625,-1.31088 -4.21011,-1.90717 -6.17853,-3.10694c-1.08617,-0.66203 -1.81546,-1.78919 -2.81193,-2.57982c-1.883,-1.49402 -4.14689,-2.46906 -6,-4c-2.02342,-1.67164 -3.42202,-3.98261 -5.04515,-6.04515c-1.16611,-1.4818 -2.83846,-2.51461 -4,-4c-0.49877,-0.63783 -0.53128,-1.6264 -1.16345,-2.13233c-1.16388,-0.93146 -2.88537,-1.01014 -4,-2c-2.01922,-1.7932 -3.21693,-4.69488 -4.83655,-6.86767c-0.99372,-1.33313 -2.48355,-2.35245 -3.12903,-3.88479c-0.60725,-1.44158 -0.31604,-3.11251 -0.47406,-4.66876l-0.71197,-1.82966c0,0 -1.52651,-4.57954 1.54382,-7.61525zM193.326,245.41912c1.07187,1.03704 1.66971,2.50604 2.61779,3.66811c1.19201,1.46105 2.81274,2.53509 4,4c0.98516,1.21556 1.62375,2.95875 2.95485,3.95485c1.9245,1.44017 4.12959,2.49025 6,4c0.48027,0.38766 0.65478,1.10947 1.18807,1.42018c1.87228,1.09088 4.00356,1.71378 5.82147,2.89306c5.72233,2.85135 11.41382,5.89571 17,9c2.91257,1.61854 2.78922,2.31075 5.83765,3.45269c6.47139,2.42417 11.70205,1.51383 17.21299,-2.18973c3.39136,-2.27912 6.01079,-5.20861 8.88162,-8.07944c1.38369,-1.38369 3.22339,-2.39739 4.21898,-4.08203c2.59061,-4.38356 5.08866,-8.82198 7.54285,-13.28335c0.43526,-0.79124 0.93143,-1.83214 1.48305,-3.03432c-5.52337,4.13155 -13.99087,7.12858 -20.54151,7.19233c-3.92721,0.03822 -7.81714,-0.80679 -11.73993,-0.99703c-8.78609,-0.42609 -17.80963,0.76131 -26.57652,-0.04849c-5.79243,-0.53505 -12.61325,-2.32666 -17.95375,-4.51471c-2.66054,-1.09005 -5.30801,-2.21189 -7.9476,-3.35213z" fill="#b9b9b9" stroke="none" stroke-width="0.5"/><path d="M349.64372,32.84215c0,6.69555 -5.97738,7.41371 -7.25965,7.49075c-5.0071,1.66437 -9.9957,3.34497 -15.03898,4.91241c-3.8571,-0.16154 -6.08254,2.24555 -10,3c-0.9372,0.18049 -1.94243,-0.27478 -2.86318,-0.0235c-0.92252,0.25175 -10.17459,4.08764 -11.7585,4.66274c-0.65076,0.23628 -6.59248,1.92438 -8.19436,3.04193c-9.97708,6.9605 -19.19532,15.42898 -26.37429,25.40092c-5.74,7.97314 -10.26165,16.76981 -15.87745,24.8309c-2.93449,4.21225 -9.74181,9.66354 -10.85752,15.50287c0,0 -1.81902,7.27607 -9.09509,5.45705c-7.27607,-1.81902 -5.45705,-9.09509 -5.45705,-9.09509c0.50135,-1.80142 0.67278,-3.72931 1.50404,-5.40427c2.82425,-5.69074 8.00845,-9.87903 11.63844,-15.09286c5.69289,-8.17679 10.29131,-17.09039 16.12255,-25.1691c6.01365,-8.33143 13.40434,-16.11041 21.45177,-22.46985c1.82086,-1.43892 3.94759,-2.45269 5.80435,-3.84498c0.87775,-0.65818 1.44994,-1.68602 2.36959,-2.28425c4.72237,-3.07189 6.50432,-3.02749 11.80564,-4.95807c5.49841,-2.00236 7.88804,-3.60532 14.2415,-5.33726c1.00882,-0.275 2.099,0.10412 3.13682,-0.0235c2.3477,-0.2887 4.20366,-2.24705 6.47822,-2.89621c1.12934,-0.32231 2.34785,-0.06919 3.52178,-0.10379c4.59346,-1.81064 9.17125,-3.14921 13.82966,-4.71197l3.37171,-0.38488c0,0 7.5,0 7.5,7.5z" fill="#b9b9b9" stroke="none" stroke-width="0.5"/></g></g></svg>